<?xml version="1.0" standalone="no"?>
<!DOCTYPE svg PUBLIC "-//W3C//DTD SVG 1.1//EN" "http://www.w3.org/Graphics/SVG/1.1/DTD/svg11.dtd" >
<svg xmlns="http://www.w3.org/2000/svg">
<metadata>
This is a custom SVG webfont generated by Font Squirrel.
Copyright   : Copyright c 2011 Dario Manuel Muhafara httpwwwtiponetar with Reserved Font Name Overlock
Designer    : Dario Muhafara
Foundry     : Dario Manuel Muhafara
Foundry URL : wwwtiponetar
</metadata>
<defs>
<font id="OverlockBlack" horiz-adv-x="1175" >
<font-face units-per-em="2048" ascent="1638" descent="-410" />
<missing-glyph horiz-adv-x="440" />
<glyph unicode=" "  horiz-adv-x="440" />
<glyph unicode="&#x09;" horiz-adv-x="440" />
<glyph unicode="&#xa0;" horiz-adv-x="440" />
<glyph unicode="!" horiz-adv-x="645" d="M133 1399q94 23 193 22q174 1 174 -153q0 -63 -16.5 -218t-16.5 -241q0 -229 27 -301q-78 -39 -152 -39q-72 0 -120 33t-48 94q0 16 1 75.5t1 102.5q0 475 -43 625zM154 162q0 76 56 129t132 53q74 0 128 -53t54 -129q0 -78 -56 -130t-130 -52q-78 0 -131 51t-53 131z " />
<glyph unicode="&#x22;" horiz-adv-x="886" d="M61 1397q0 55 34 83.5t128 28.5q143 0 144 -112q0 -127 -43 -365q-18 -100 -136 -100q-55 0 -104 16q6 39 6 86q0 96 -14.5 213t-14.5 150zM524 1397q0 55 34 83.5t128 28.5q143 0 143 -112q0 -127 -43 -365q-18 -100 -135 -100q-55 0 -104 16q6 39 6 86q0 96 -14.5 213 t-14.5 150z" />
<glyph unicode="#" d="M-14 434.5q0 59.5 41 88t143 28.5q14 0 60 -1t81 -1l29 246q-92 -4 -139 -13.5t-152 -40.5q-8 31 -8 90q0 57 42 87t142 30l133 -2q33 268 37 359q41 8 78 8q41 0 69.5 -22.5t28.5 -69.5q0 -16 -53 -279h223q31 264 37 363q41 8 78 8q41 0 69.5 -22.5t28.5 -69.5 q0 -29 -51 -273q29 2 287 19q0 -39 -2 -58.5t-9.5 -50.5t-21.5 -45t-40.5 -26.5t-65.5 -12.5q-8 0 -52.5 6t-121.5 8q-18 -88 -39 -239q72 2 297 20q0 -39 -2.5 -58t-9.5 -50t-21.5 -46.5t-41 -26.5t-65.5 -11q-12 0 -57 5t-121 9q-6 -98 -6 -217q0 -94 2 -125 q-41 -23 -102 -22q-47 0 -67.5 22.5t-20.5 73.5q0 27 22.5 141.5t22.5 132.5q-80 2 -148 2h-84q-18 -178 -18 -252q0 -63 2 -98q-41 -23 -92 -22q-47 0 -67.5 22.5t-20.5 73.5q0 10 45 274q-152 -6 -291 -53q-8 31 -8 90.5zM455 545q162 0 237 4q6 31 31 246q-66 4 -150 4 h-79q-29 -172 -39 -254z" />
<glyph unicode="$" d="M117 168q0 43 27.5 75.5t59.5 49t95 43.5q25 -66 83 -113t138 -57v395q-53 16 -77.5 24.5t-72.5 30t-73 41t-59.5 54t-52 74.5t-31 96.5t-13.5 126.5q0 156 107.5 247t269.5 113q-2 51 -10 135q35 10 51 10q78 0 78 -79v-60q143 -6 258 -55t115 -131q0 -129 -195 -164 q-23 59 -72 101t-106 55v-371q76 -23 110.5 -36t101 -48t100.5 -74t61.5 -106.5t27.5 -153.5q0 -162 -100 -274.5t-297 -132.5q0 -5 12 -138l-45 -6q-82 0 -88 80v62q-168 6 -285.5 60t-117.5 126zM420 1022q0 -104 100 -162v309q-45 -18 -72.5 -58t-27.5 -89zM639 176 q119 43 119 180q0 109 -119 164v-344z" />
<glyph unicode="%" horiz-adv-x="1808" d="M66 1022q0 158 95 249t257 91q160 0 254 -92t94 -248t-94 -248t-254 -92q-162 0 -257 92t-95 248zM305 1047q0 -84 28.5 -148.5t82.5 -64.5q49 0 78.5 49t29.5 125q0 80 -27.5 142t-78.5 62q-49 0 -81 -47t-32 -118zM422 20q-1 35 24 70l478 756q211 332 350 586 q51 -2 92 -29t41 -66q0 -31 -21 -61l-477 -758q-186 -295 -352 -586q-127 27 -135 88zM1040 319q0 158 95.5 249t257.5 91q160 0 254 -92t94 -247.5t-94 -247.5t-254 -92q-162 0 -257.5 92t-95.5 247zM1280 344q0 -84 28.5 -148.5t82.5 -64.5q49 0 78.5 49t29.5 125 q0 80 -27.5 142.5t-78.5 62.5q-49 0 -81 -47t-32 -119z" />
<glyph unicode="&#x26;" horiz-adv-x="1378" d="M66 350q0 201 213 350q-131 188 -132 355q0 147 113 235t326 88q174 0 273 -76.5t99 -183.5q0 -66 -24.5 -125t-56 -99t-89 -86t-92 -67.5t-96.5 -58.5q129 -164 268 -279q10 61 11 99q0 61 -29 151q66 39 137 39q188 0 189 -137q0 -84 -20.5 -144.5t-74.5 -150.5 q127 -63 246 -63q12 -53 12 -82q0 -135 -143 -135q-147 0 -315 92q-133 -90 -322 -90q-199 0 -346 99t-147 269zM373 375q0 -98 71.5 -151.5t171.5 -53.5q53 0 99 14q-160 132 -303 318q-39 -59 -39 -127zM430 1036q0 -98 70 -211q156 113 155 242q0 53 -28.5 88t-67.5 35 q-59 0 -94 -42t-35 -112z" />
<glyph unicode="'" horiz-adv-x="571" d="M102 1397q0 55 34 83.5t128 28.5q143 0 144 -112q0 -127 -43 -365q-18 -100 -136 -100q-55 0 -104 16q6 39 6 86q0 96 -14.5 213t-14.5 150z" />
<glyph unicode="(" horiz-adv-x="690" d="M119 537q0 178 50 361t120.5 310t143.5 208t120 81q41 0 80 -47q-100 -141 -166 -390t-66 -523q0 -252 63.5 -507t168.5 -399q-39 -47 -80 -47q-49 0 -123 83t-143.5 211t-118.5 308.5t-49 350.5z" />
<glyph unicode=")" horiz-adv-x="727" d="M0 -369q104 143 167.5 398.5t63.5 507.5q0 274 -65.5 523t-165.5 390q39 47 80 47q47 0 119.5 -81t143.5 -208t121 -310t50 -361q0 -170 -49 -350.5t-119 -308.5t-143.5 -211t-122.5 -83q-41 0 -80 47z" />
<glyph unicode="*" horiz-adv-x="829" d="M47 1214q8 55 43 100.5t86 45.5q80 0 158 -82q-2 16 -12.5 98t-20.5 127q63 18 100 19q127 -1 127 -95q0 -74 -20 -155q145 106 172 133q90 -78 90 -135q0 -86 -244 -148q143 -133 215 -186q-23 -41 -61.5 -69.5t-83.5 -28.5q-49 0 -89 46t-93 146q-78 -135 -133 -227 q-59 20 -105.5 56t-46.5 75q0 70 174 196q-154 55 -256 84z" />
<glyph unicode="+" d="M72 498q0 47 25.5 85t80.5 38q16 0 109.5 -8.5t218.5 -12.5q0 211 -25 414q27 8 88 8q51 0 87 -28.5t36 -75.5q0 -49 -10 -147.5t-10 -172.5q215 0 426 23q8 -25 8 -86q0 -51 -29.5 -87t-77.5 -36q-49 0 -153.5 10t-175.5 10q0 -162 22 -414q-43 -8 -88 -8 q-49 0 -86 26.5t-37 78.5q0 16 8.5 101t12.5 218q-94 0 -422 -22q-8 43 -8 86z" />
<glyph unicode="," horiz-adv-x="528" d="M37 -254q0 10 4 43h10q55 0 96 44t41 93q0 84 -92 99q-20 43 -20 92q0 72 50 117t132 45q92 0 142.5 -66t50.5 -166q0 -143 -94.5 -262t-243.5 -119q-76 0 -76 80z" />
<glyph unicode="-" horiz-adv-x="579" d="M51 514q0 55 37 95t117 40q12 0 71.5 -6t94.5 -6h16q88 0 160 31q22 -62 22 -117q0 -61 -42 -98t-111 -37q-23 0 -82.5 7t-91.5 7q-78 0 -176 -33q-14 72 -15 117z" />
<glyph unicode="." horiz-adv-x="520" d="M66 172q0 80 57 135t133 55t130 -55t54 -135q0 -82 -57 -137t-131 -55q-78 0 -132 54t-54 138z" />
<glyph unicode="/" horiz-adv-x="509" d="M55 -160q0 12 28 179t66.5 411t59.5 399q74 528 86 678l61 11q106 0 107 -80l-154 -992q-68 -457 -86 -677q-45 -10 -71 -11q-96 0 -97 82z" />
<glyph unicode="0" d="M51 678q0 322 144.5 511t390 189t392 -189.5t146.5 -510.5q0 -317 -146.5 -507.5t-392 -190.5t-390 189t-144.5 509zM367 741q0 -221 57 -391t160 -170q98 0 158.5 133t60.5 330q0 205 -57.5 369t-159.5 164q-96 0 -157.5 -126t-61.5 -309z" />
<glyph unicode="1" d="M172 1208q0 127 104 140q242 31 361 30q49 0 87 -24.5t38 -77.5q0 -16 -4 -112.5t-8.5 -243t-4.5 -283.5v-107q1 -224 15 -337q131 0 203 8q18 -41 18 -90q0 -115 -100 -115q-18 0 -153.5 2t-252.5 2q-193 0 -274 -2q-20 57 -21 100q0 100 139 101h119q0 33 2 212t2 314 q0 236 -6 432q-221 -23 -256 -29q-8 53 -8 80z" />
<glyph unicode="2" d="M80 123q0 35 12 92q395 346 514 481t119 269q0 106 -45 157.5t-119 51.5q-80 0 -164 -53.5t-133 -133.5q-152 43 -151 162q0 82 155.5 155.5t331.5 73.5q184 0 311 -101t127 -288q0 -63 -22.5 -132t-50 -123t-87 -123.5t-94 -107.5t-113.5 -106.5t-105.5 -90 t-104.5 -85.5q4 -2 45 -2q250 0 358.5 8.5t216.5 44.5q27 -72 27 -120q0 -90 -53 -121q-63 -35 -385 -35q-92 0 -254 2t-228 2q-109 0 -108 123z" />
<glyph unicode="3" d="M111 129q0 47 36.5 89t92.5 58q25 -43 90 -70.5t141 -27.5q94 0 165 54.5t71 148.5q0 111 -73 178.5t-194 67.5q-37 0 -56 2t-44 12t-35 34.5t-10 63.5t6 68q180 0 271.5 69.5t91.5 163.5q0 68 -39 103t-101 35q-72 0 -139.5 -45.5t-89.5 -116.5q-76 10 -117 50t-41 87 q0 84 123 154.5t307 70.5q197 0 307.5 -93t110.5 -222q0 -220 -240 -318q164 -66 223.5 -150.5t59.5 -205.5q0 -166 -149.5 -287.5t-409.5 -121.5q-49 0 -97 4t-113.5 17t-106.5 46t-41 82z" />
<glyph unicode="4" d="M29 524q0 16 4 58q84 143 267.5 391t277.5 342q70 63 225 63q96 0 149 -14q0 -6 -5 -87t-9 -225.5t-4 -303.5v-142q150 12 199 35q20 -57 20 -121q0 -88 -41 -106q-53 -25 -178 -27q0 -221 49 -381q-76 -27 -174 -26q-111 0 -147.5 40.5t-36.5 141.5q0 10 4 227 q-358 0 -506 12q-57 4 -75.5 34t-18.5 89zM322 598q45 -2 155 -2q80 0 152 6q0 188 6 404q-16 -20 -83 -101.5t-123 -155t-107 -151.5z" />
<glyph unicode="5" d="M104 121q0 43 38 83t96 54q59 -86 208 -86q117 0 186.5 75t69.5 179q0 121 -94 210t-274 89q-55 0 -137 -14q-20 31 -21 137q0 31 27 512q74 -4 502 -4q227 0 280 16q31 -57 31 -108q0 -59 -43 -96.5t-119 -37.5q-156 0 -371 13l-30 -236q51 8 112 8q217 0 338 -130 t121 -326q0 -127 -51 -224.5t-137 -151.5t-181.5 -80t-199.5 -26q-147 0 -249 39t-102 105z" />
<glyph unicode="6" d="M104 563q0 207 79 389.5t244 304t382 121.5q90 0 130 -25.5t40 -97.5q0 -40 -12 -98q-47 14 -131 14q-193 0 -294.5 -119.5t-117.5 -299.5q117 90 248 90q184 -2 287.5 -121t103.5 -285q0 -182 -127 -319t-354 -137q-135 0 -231.5 49t-148.5 135t-75 184t-23 215z M422 596q0 -90 8 -157.5t25.5 -129t53.5 -94.5t89 -33q68 0 106.5 60.5t38.5 146.5q0 96 -38.5 175t-126.5 79q-68 0 -156 -47z" />
<glyph unicode="7" d="M84 1272q0 51 25 100q115 -16 262 -16q614 0 735 4q18 -33 18 -78q0 -39 -12 -76q-59 -178 -547 -1085q-43 -82 -79.5 -111.5t-79.5 -29.5q-152 0 -275 118q174 164 382 497t294 546q-297 -10 -574 -11q-74 0 -111.5 40t-37.5 102z" />
<glyph unicode="8" d="M104 348q0 154 78 237t228 150q-123 59 -187.5 142.5t-64.5 209.5q0 129 127 210t305 81q205 0 318.5 -88t113.5 -211q0 -92 -65.5 -176t-186.5 -135q152 -68 230.5 -165t78.5 -255q0 -152 -127 -260t-360.5 -108t-360.5 108.5t-127 259.5zM422 362q0 -80 41 -130 t127 -50q78 0 122 52.5t44 130.5q0 82 -50.5 159.5t-146.5 124.5q-57 -35 -97 -119t-40 -168zM473 1081q0 -61 47 -130.5t103 -94.5q88 61 88 199q0 115 -121 121q-117 0 -117 -95z" />
<glyph unicode="9" d="M104 922q0 182 127.5 319t354.5 137q135 0 231 -49t148.5 -135t75 -184.5t22.5 -214.5q0 -207 -79 -389.5t-244 -304t-382 -121.5q-90 0 -130 25.5t-40 96.5q0 40 13 99q47 -14 131 -15q193 0 294 120t117 300q-117 -90 -247 -90q-184 2 -288 121t-104 285zM424 969 q0 -96 39 -175t127 -79q68 0 155 47q0 90 -8 157.5t-25.5 129t-53.5 94.5t-89 33q-68 0 -106.5 -60.5t-38.5 -146.5z" />
<glyph unicode=":" horiz-adv-x="520" d="M66 172q0 80 57 135t133 55t130 -55t54 -135q0 -82 -57 -137t-131 -55q-78 0 -132 54t-54 138zM66 803q0 80 57 135t133 55t130 -55t54 -135q0 -82 -57 -137.5t-131 -55.5q-78 0 -132 54.5t-54 138.5z" />
<glyph unicode=";" horiz-adv-x="552" d="M37 -254q0 10 4 43h10q55 0 96 44t41 93q0 84 -92 99q-20 43 -20 92q0 72 50 117t132 45q92 0 142.5 -66t50.5 -166q0 -143 -94.5 -262t-243.5 -119q-76 0 -76 80zM74 803q0 80 57 135t133 55t130.5 -55t54.5 -135q0 -82 -57.5 -137.5t-131.5 -55.5q-78 0 -132 54.5 t-54 138.5z" />
<glyph unicode="&#x3c;" d="M227 520l465 443q39 33 74 32q43 0 84 -30.5t59 -69.5q-51 -45 -160.5 -134t-199.5 -161t-98 -80q39 -39 122.5 -113.5t189 -167t142.5 -124.5q-23 -43 -62.5 -72t-80.5 -29q-39 0 -74 33z" />
<glyph unicode="=" d="M137 301q0 47 25.5 85t79.5 38q8 0 139 -10.5t227 -10.5q279 0 420 21q10 -41 10 -86q0 -51 -28.5 -87t-75.5 -36q-35 0 -160 11.5t-186 11.5q-231 0 -443 -23q-8 43 -8 86zM137 702q0 47 25.5 85t79.5 38q8 0 139 -10t227 -10q279 0 420 20q10 -41 10 -86 q0 -51 -28.5 -87t-75.5 -36q-35 0 -160 11.5t-186 11.5q-231 0 -443 -23q-8 43 -8 86z" />
<glyph unicode="&#x3e;" d="M266 895q18 39 59.5 69.5t84.5 30.5q35 0 73 -32l465 -443l-461 -473q-35 -33 -73 -33q-41 0 -81 29t-63 72q37 33 142.5 125t189.5 166.5t123 113.5q-8 8 -98 80t-200 161t-161 134z" />
<glyph unicode="?" horiz-adv-x="864" d="M53 1229q0 90 106.5 141t256.5 51q55 0 107 -6t111.5 -24.5t102.5 -47t72 -79t29 -115.5q0 -84 -30 -151.5t-72 -110.5t-84 -83t-71.5 -89t-29.5 -109q0 -43 14 -94q-84 -43 -151 -43q-92 0 -134 37t-42 90q0 76 44 150.5t97 127t97 124t44 141.5q0 51 -30.5 78.5 t-84 27.5t-99.5 -42t-58 -111q-195 23 -195 137zM231 162q0 76 56.5 129t132.5 53q74 0 128 -53t54 -129q0 -78 -56 -130t-130 -52q-78 0 -131.5 51t-53.5 131z" />
<glyph unicode="@" horiz-adv-x="1718" d="M119 369q0 150 59.5 297t165 269t271 197.5t358.5 75.5q285 0 454.5 -146.5t169.5 -371.5q0 -233 -137 -391t-338 -158q-156 0 -200 158q-99 -188 -244 -188q-94 0 -154.5 74.5t-60.5 215.5q0 209 122 357.5t298 148.5q203 0 348 -94q-74 -295 -74 -461q0 -113 51 -112 q53 0 102.5 108.5t49.5 286.5q0 199 -102.5 308.5t-315.5 109.5q-178 0 -321.5 -105.5t-216 -259t-72.5 -313.5q0 -119 40 -207t108.5 -135t144 -69.5t161.5 -22.5q115 0 206 34.5t108 85.5q106 -41 106 -118q0 -68 -124 -118t-291 -50q-96 0 -187.5 18.5t-181.5 62.5 t-155.5 109.5t-106.5 170t-41 233.5zM719 444q0 -59 19.5 -99t54.5 -40q65 0 114 113q8 43 23.5 149.5t19.5 130.5q-45 27 -92 27q-61 0 -100 -77t-39 -204z" />
<glyph unicode="A" horiz-adv-x="1257" d="M8 102q0 43 71 209t189.5 459t200.5 573q96 14 158 15q172 0 221 -150q152 -467 217 -635q160 -416 217 -528q-95 -65 -187 -65h-3q-121 0 -156 77q-23 53 -60.5 151.5t-70.5 178.5q-160 -4 -191 -4q-84 0 -182 8q-139 -336 -168 -428q-72 10 -104.5 16.5t-75.5 21.5 t-59.5 40t-16.5 61zM485 590q98 -4 156 -4q80 0 119 4q-33 113 -78 290t-53 205q-127 -442 -144 -495z" />
<glyph unicode="B" d="M92 109q33 233 33 684q0 381 -27 561q169 24 362 24h15q121 0 221.5 -17.5t185.5 -56t133 -109.5t48 -169q0 -213 -219 -285q143 -47 206.5 -130t63.5 -220q0 -139 -79 -235.5t-196.5 -136t-263.5 -39.5q-286 0 -483 129zM414 240q94 -51 180 -52q88 0 142.5 56.5 t54.5 161.5q0 96 -60.5 162.5t-181.5 66.5q-66 0 -119 -6q0 -94 -16 -389zM432 1165q8 -127 8 -340q23 -4 68 -4q104 0 169.5 48.5t65.5 144.5q0 84 -66.5 120.5t-164.5 36.5q-43 0 -80 -6z" />
<glyph unicode="C" horiz-adv-x="1288" d="M66 680q0 328 194.5 513t527.5 185q178 0 300 -64.5t122 -158.5q0 -72 -59 -117t-158 -57q-35 94 -110.5 142t-161.5 48q-141 0 -232.5 -129t-91.5 -321q0 -227 93.5 -381t261.5 -154q94 0 181 43t142 133q156 -72 156 -167q0 -59 -50.5 -104.5t-125 -68t-142 -32.5 t-122.5 -10q-133 0 -254 35.5t-230.5 112.5t-175 219t-65.5 333z" />
<glyph unicode="D" horiz-adv-x="1349" d="M88 109q27 188 31 688q0 358 -27 557q136 24 340 24h17q178 0 322 -34.5t263 -111.5t184.5 -216t65.5 -334q0 -307 -184.5 -504.5t-524.5 -197.5q-313 0 -487 129zM408 244q113 -57 210 -58q160 0 245 130t85 325q0 264 -109.5 398.5t-314.5 134.5q-49 -1 -96 -7 q8 -121 8 -286q0 -399 -28 -637z" />
<glyph unicode="E" horiz-adv-x="1089" d="M88 1346q264 18 539 18q295 0 383 -33q39 -14 39 -82q0 -80 -25 -139q-135 43 -457 43q-41 0 -143 -4q8 -66 8 -315h162q131 0 242 12q12 -27 12 -86q0 -76 -35 -105.5t-125 -29.5h-256q0 -346 17 -416q90 -4 145 -4q334 0 430 47q25 -61 25 -141q0 -70 -54.5 -92.5 t-216.5 -22.5q-489 0 -567 4q-59 2 -79.5 28.5t-20.5 88.5q0 33 2 151.5t2 190.5v409q0 289 -27 478z" />
<glyph unicode="F" horiz-adv-x="1048" d="M88 1346q264 18 539 18q295 0 383 -33q39 -14 39 -82q0 -80 -25 -139q-135 43 -457 43q-41 0 -143 -4q8 -66 8 -336h162q131 0 242 12q12 -27 12 -86q0 -76 -35 -105.5t-125 -29.5h-256v-188q0 -238 49 -393q-18 -8 -77.5 -18.5t-92.5 -10.5q-119 0 -158.5 42t-39.5 154 q0 33 2 115t2 154v409q0 272 -29 478z" />
<glyph unicode="G" horiz-adv-x="1320" d="M66 680q0 328 194.5 513t527.5 185q178 0 300 -64.5t122 -158.5q0 -70 -58 -116t-159 -58q-35 94 -111.5 142t-160.5 48q-135 0 -229.5 -126.5t-94.5 -323.5q0 -227 93.5 -381t259.5 -154q137 0 192 78q-2 176 -16 342q80 16 135 17q192 0 192 -118q0 -7 -6 -120t-6 -197 q0 -86 -129 -147t-328 -61q-330 0 -524 186t-194 514z" />
<glyph unicode="H" horiz-adv-x="1363" d="M88 1348q78 16 162 16q78 0 132 -26.5t54 -84.5q0 -10 -7 -159.5t-7 -251.5q78 -4 250 -4q163 0 239 4v41q0 225 -18 465q78 16 162 16q78 0 132 -26.5t54 -84.5q0 -10 -7 -165.5t-7 -260.5v-411q0 -229 49 -393q-76 -29 -186 -29q-41 0 -68 5t-56.5 20.5t-44 53.5 t-14.5 97q0 39 2 146.5t2 156.5v168q-78 -4 -239 -4q-168 0 -250 4v-225q0 -229 49 -393q-76 -29 -186 -29q-41 0 -68 5t-56.5 20.5t-44 53.5t-14.5 97q0 39 2 146.5t2 156.5v410q0 225 -18 465z" />
<glyph unicode="I" horiz-adv-x="528" d="M88 1348q78 16 162 16q78 0 132 -27.5t54 -85.5q0 -10 -7 -164.5t-7 -259.5v-411q0 -229 49 -393q-76 -29 -186 -29q-41 0 -68 5t-56.5 20.5t-44 53.5t-14.5 97q0 39 2 146.5t2 156.5v410q0 225 -18 465z" />
<glyph unicode="J" horiz-adv-x="593" d="M-51 -45q147 25 188 97.5t41 226.5q0 43 -1 269t-1 335q0 225 -18 465q98 16 159 16q84 0 136.5 -28.5t52.5 -82.5q0 -2 -7 -157.5t-7 -266.5v-610q0 -109 -32 -194.5t-77 -135t-100.5 -81t-96 -42t-71.5 -10.5q-82 0 -120 51.5t-46 147.5z" />
<glyph unicode="K" horiz-adv-x="1257" d="M88 1348q78 16 162 16q78 0 132 -26.5t54 -84.5q0 -10 -7 -165.5t-7 -260.5q166 117 327.5 272.5t211.5 278.5q96 -31 128.5 -64.5t32.5 -80.5q0 -135 -424 -445q236 -369 361 -518q65 -75 123 -75h2q6 0 55 6q18 -55 18 -92q0 -66 -60 -97.5t-146 -31.5q-113 0 -224 104 q-145 137 -370 539q-4 -2 -35 -23v-184q0 -229 49 -393q-76 -29 -186 -29q-41 0 -68 5t-56.5 20.5t-44 53.5t-14.5 97q0 39 2 146.5t2 156.5v410q0 225 -18 465z" />
<glyph unicode="L" horiz-adv-x="1040" d="M88 1348q78 16 162 16q78 0 132 -26.5t54 -84.5q0 -10 -7 -162.5t-7 -256.5v-402q0 -158 16 -223q90 -4 148 -4q334 0 430 47q24 -59 24 -135v-6q0 -70 -54 -92.5t-216 -22.5q-489 0 -567 4q-59 2 -80 28.5t-21 88.5q0 70 2 185.5t2 156.5v424q0 225 -18 465z" />
<glyph unicode="M" horiz-adv-x="1681" d="M88 1350q129 18 205 18q186 0 242 -123q61 -137 119.5 -316t90 -293t99.5 -364q115 545 321 996q27 57 86.5 77.5t155.5 20.5q109 0 184 -16q-37 -123 -37 -457v-477q0 -266 39 -396q-102 -26 -171 -26h-5q-184 0 -184 153q0 25 1 113t2 259t1 331q-182 -514 -244 -834 q-57 -20 -139 -20q-168 0 -199 76q-39 94 -120.5 375.5t-133.5 412.5v-444q0 -276 39 -406q-74 -16 -143 -16q-174 0 -174 117q0 33 2 161.5t2 200.5v516q0 229 -39 361z" />
<glyph unicode="N" horiz-adv-x="1357" d="M88 1337q98 29 178 29q147 0 221 -90q150 -186 449 -713q-2 319 -2 320q0 281 -14 467q86 14 127 14q200 0 200 -118q0 -9 -8 -174t-8 -245v-350q0 -283 14 -469q-66 -14 -127 -14q-174 0 -235 96q-80 125 -183 307q-188 338 -280 486v-467q0 -260 43 -396 q-57 -26 -147 -26h-7q-102 0 -145 29.5t-43 111.5q0 33 3 149.5t3 188.5v410q0 330 -39 454z" />
<glyph unicode="O" horiz-adv-x="1490" d="M66 678q0 322 183 511t494 189q313 0 497.5 -189.5t184.5 -510.5q0 -317 -185.5 -507.5t-496.5 -190.5q-309 0 -493 190t-184 508zM397 741q0 -143 32 -263t113 -206t199 -86q166 0 257.5 126t91.5 329q0 135 -32 250t-113 197.5t-200 82.5q-160 0 -254 -120.5 t-94 -309.5z" />
<glyph unicode="P" horiz-adv-x="1103" d="M88 1354q169 24 338 24h14q635 0 635 -442q0 -219 -128 -346t-308 -127q-106 0 -207 61v-137q0 -209 49 -364q-63 -29 -192 -29q-104 0 -140 45t-36 131q0 33 2 132t2 171v410q0 287 -29 471zM424 1163q8 -94 8 -327v-142q66 -30 123 -30q88 0 137 69.5t49 188.5 q0 141 -61.5 195t-190.5 54q-25 0 -65 -8z" />
<glyph unicode="Q" horiz-adv-x="1490" d="M66 678q0 322 183 511t494 189q313 0 497.5 -189.5t184.5 -510.5q0 -289 -155.5 -474.5t-421.5 -217.5q39 -121 203 -121q74 0 144.5 28.5t107.5 77.5q45 -29 74.5 -73.5t29.5 -90.5q0 -68 -89 -109.5t-216 -41.5q-174 0 -314.5 84t-169.5 250q-258 37 -405 220t-147 468 zM397 741q0 -143 32 -263t113 -206t199 -86q166 0 257.5 126t91.5 329q0 135 -32 250t-113 197.5t-200 82.5q-160 0 -254 -120.5t-94 -309.5z" />
<glyph unicode="R" horiz-adv-x="1189" d="M88 1354q169 24 338 24h14q633 0 633 -428q0 -279 -248 -375q100 -245 176 -331q43 -49 107 -49q27 0 57 6q18 -51 19 -92q0 -70 -66.5 -99.5t-152.5 -29.5q-111 0 -179 69q-129 131 -266 508q-39 14 -39 59q0 41 23 95q23 -6 53 -6q90 0 137 70.5t47 185.5 q0 117 -59 162.5t-182 45.5q-33 0 -78 -4q6 -84 6 -391v-366q0 -231 49 -385q-76 -29 -192 -29q-102 0 -139 44t-37 132q0 33 2 132t2 171v410q0 274 -25 471z" />
<glyph unicode="S" horiz-adv-x="1120" d="M59 172q0 63 35 102t119 84q51 -72 153.5 -120t198.5 -48q82 0 133.5 39t51.5 121q0 78 -67 125t-161 76t-188 68.5t-161 132t-67 237.5q0 104 45.5 182t122 122t167.5 64.5t198 20.5q168 0 289 -49t121 -137q0 -53 -50.5 -100t-140.5 -72q-33 59 -121 103t-170 44 q-68 0 -109.5 -35.5t-41.5 -109.5q0 -66 48 -111t118.5 -66.5t154.5 -54t155 -69.5t119 -115t48 -188q0 -121 -46 -209t-126 -136t-171 -70.5t-196 -22.5q-188 0 -324.5 53t-136.5 139z" />
<glyph unicode="T" horiz-adv-x="1116" d="M0 1239q0 39 14.5 63.5t46 35t60.5 13.5t78 3h440q344 0 467 8q10 -45 10 -94q0 -117 -155 -117h-234q-10 -195 -10 -379v-383q0 -207 49 -366q-90 -29 -197 -29q-98 0 -135 44t-37 132q0 31 2 120.5t2 155.5v379q0 178 -6 326q-262 0 -385 -12q-10 31 -10 100z" />
<glyph unicode="U" horiz-adv-x="1394" d="M96 1335q76 29 166 29q111 0 156 -45t45 -168q0 -45 -13.5 -316.5t-13.5 -428.5q0 -104 58.5 -158.5t134.5 -54.5q78 0 167 46t144 107q0 14 1 66.5t1 178.5v322q0 209 -18 435q78 16 159 16q90 0 139.5 -29.5t49.5 -81.5l-7 -160q-7 -161 -8 -343v-220q0 -219 10.5 -317 t39.5 -190q-76 -29 -187 -29q-100 0 -137 35t-47 129q-86 -84 -197.5 -131t-210.5 -47q-193 0 -304 91t-111 322q0 121 9 328t9 305q0 193 -35 309z" />
<glyph unicode="V" horiz-adv-x="1280" d="M-27 1249q125 115 232 115q74 0 114 -68q145 -244 308 -1060q100 166 202.5 472t102.5 527q0 66 -12 121q82 22 151 22h6q188 0 189 -127q0 -197 -135.5 -558t-272.5 -550q-108 -149 -276 -149h-2q-90 0 -150 14q-66 324 -202 705t-255 536z" />
<glyph unicode="W" horiz-adv-x="2054" d="M-27 1249q125 115 232 115q74 0 114 -68q72 -137 147 -450.5t126 -609.5q90 166 181 472t91 527q0 66 -12 121q82 22 152 22h6q188 0 188 -127q0 -63 -16 -155q127 -223 239 -860q90 166 181.5 472t91.5 527q0 66 -13 121q82 22 152 22h6q188 0 189 -127 q0 -197 -128 -558t-260 -550q-101 -149 -260 -149h-2q-86 0 -143 14q-82 416 -164 692q-127 -365 -260 -557q-101 -149 -260 -149h-2q-86 0 -143 14q-61 326 -190.5 706t-242.5 535z" />
<glyph unicode="X" horiz-adv-x="1312" d="M33 1221q128 157 247 157h1q70 0 117.5 -30.5t88.5 -102.5q104 -184 183 -377q203 338 223 510q297 -33 297 -153q0 -27 -23.5 -71t-71.5 -105.5t-87 -107.5t-108 -124t-95 -108q121 -205 262 -363t238 -217q-122 -149 -259 -149h-2q-111 0 -161 98q-219 403 -248 463 q-98 -113 -190.5 -278t-112.5 -283q-121 10 -208 47.5t-87 105.5q0 35 33.5 91.5t93 125t114 127t124 129t96.5 101.5q-113 182 -243 318t-222 196z" />
<glyph unicode="Y" horiz-adv-x="1157" d="M-14 1229q104 141 218.5 141t188.5 -129q63 -114 217 -440q72 111 157 310.5t87 266.5q295 -31 295 -153q0 -18 -13.5 -50t-43 -79t-56 -87t-75 -105.5t-73 -98.5t-77.5 -102.5t-66 -86.5v-200q0 -229 50 -393q-76 -29 -187 -29q-41 0 -67.5 5t-56 20.5t-44 53.5 t-14.5 97q0 39 2 146.5t2 156.5v129q-299 563 -444 627z" />
<glyph unicode="Z" horiz-adv-x="1161" d="M35 106q0 53 53 132q580 809 682 923q-98 0 -162 -2q-311 -12 -489 -55q-43 90 -43 147q0 31 18.5 59.5t52.5 35.5q90 20 318 20q387 0 635 -39q35 -35 35 -78q0 -47 -45 -110q-279 -377 -459 -613.5t-221 -285.5l-41 -50q92 0 143 3q342 12 557 65q39 -88 39 -149 q0 -94 -164 -109q-135 -12 -352 -12q-317 0 -520 24q-37 45 -37 94z" />
<glyph unicode="[" horiz-adv-x="774" d="M199 -389v1864h514q8 -25 8 -68q0 -57 -21.5 -78.5t-68.5 -21.5q-88 0 -164 4v-1534q78 4 164 4q51 0 70.5 -24.5t19.5 -78.5q0 -35 -8 -67h-514z" />
<glyph unicode="\" horiz-adv-x="509" d="M61 1438q0 80 107 80q35 0 61 -11q12 -150 86 -678q10 -78 48 -324.5t72 -458.5t34 -206q0 -82 -96 -82q-27 0 -72 11q-18 220 -86 677q-154 948 -154 992z" />
<glyph unicode="]" horiz-adv-x="733" d="M39 -322q0 53 19.5 78t70.5 25q86 0 164 -4v1534q-76 -4 -164 -4q-47 0 -68.5 21.5t-21.5 78.5q0 43 8 68h514v-1864h-514q-8 33 -8 67z" />
<glyph unicode="^" horiz-adv-x="1087" d="M33 846q57 86 230 263t282 273q111 -100 281.5 -275t228.5 -261q-68 -68 -119 -68q-18 0 -44 13.5t-57.5 39t-61.5 51t-66.5 63.5t-61 62.5t-57.5 59.5t-41 45q-14 -14 -67.5 -71.5t-87.5 -92.5t-83 -80t-88 -67.5t-67 -22.5q-53 0 -121 68z" />
<glyph unicode="_" horiz-adv-x="1095" d="M0 -250q0 33 18.5 59.5t55.5 26.5q6 0 129 -7t213 -7h291q260 0 383 14q6 -18 6 -61q0 -37 -20.5 -61.5t-53.5 -24.5q-31 0 -141.5 8t-167.5 8h-293q-233 0 -414 -16q-6 31 -6 61z" />
<glyph unicode="`" horiz-adv-x="550" d="M-68 1401q1 79 138 145q41 -53 114.5 -108.5t133 -91t105.5 -79.5t46 -83q0 -55 -80 -113q-76 55 -202 119.5t-190.5 111t-64.5 99.5z" />
<glyph unicode="a" horiz-adv-x="1011" d="M59 268q0 115 46.5 168t125.5 80q156 49 369 62q0 125 -27.5 175t-115.5 50q-51 0 -109.5 -43t-85.5 -117q-180 33 -180 154q0 82 117.5 139t283.5 57q215 0 317.5 -82t102.5 -272q0 -16 -2 -120.5t-2 -156.5q0 -236 39 -352q-87 -24 -155 -24h-5q-147 0 -172 118 q-49 -57 -126 -90.5t-154 -33.5q-113 0 -190 72.5t-77 215.5zM365 272q0 -51 24.5 -76.5t61.5 -25.5q86 0 143 51q-2 18 -2 62q0 73 6 147q-61 -10 -94 -18.5t-71 -25.5t-53 -45t-15 -69z" />
<glyph unicode="b" horiz-adv-x="1114" d="M80 1495q96 27 172 27q176 0 176 -133q0 -2 -4 -297q0 -53 -1 -123t-1 -88q118 110 254 110h2q184 0 284.5 -134t100.5 -345q0 -225 -129 -378.5t-371 -153.5q-262 0 -450 139q14 123 14 440q0 264 -12 604q-10 252 -35 332zM420 219q86 -43 158 -43q182 0 182 316 q0 45 -5 88t-18.5 97t-46.5 87t-80 33q-80 0 -184 -80q0 -23 1 -120t1 -155q0 -158 -8 -223z" />
<glyph unicode="c" horiz-adv-x="976" d="M59 465q0 135 46.5 239.5t120 166t159.5 92t174 30.5q129 0 247 -53t118 -147q0 -125 -201 -150q-18 70 -65.5 111t-104.5 41q-76 0 -131 -77t-55 -229q0 -315 208 -315q63 0 120 32t77 87q92 -33 121 -63.5t29 -73.5q0 -84 -98.5 -130t-256.5 -46q-229 0 -368.5 128 t-139.5 357z" />
<glyph unicode="d" horiz-adv-x="1114" d="M59 485q0 211 117 359.5t291 148.5q115 0 231 -69q4 131 4 206q0 223 -16 365q94 27 137 27q190 0 191 -131q0 -121 -9.5 -465t-9.5 -469q0 -324 39 -447q-94 -24 -155 -24h-5q-86 0 -122.5 31.5t-49.5 86.5q-53 -55 -123.5 -89.5t-134.5 -34.5q-158 0 -271.5 143 t-113.5 362zM365 504q0 -147 53 -242.5t131 -95.5q90 0 145 61q-4 423 -4 527q-61 45 -127 45q-92 0 -145 -81t-53 -214z" />
<glyph unicode="e" horiz-adv-x="1007" d="M59 481q0 168 79 288t192.5 172t244.5 52q152 0 262.5 -75.5t110.5 -225.5q0 -303 -434 -303q-39 0 -141 4q0 -117 58 -170t144 -53q152 0 236 98q47 -23 77 -60.5t30 -76.5q0 -61 -73 -98t-141.5 -45t-132.5 -8q-225 0 -368.5 123.5t-143.5 377.5zM373 537q57 4 80.5 7 t67.5 13t63.5 27.5t36 49.5t16.5 79q0 33 -22.5 59.5t-55.5 26.5q-74 0 -129 -66.5t-57 -195.5z" />
<glyph unicode="f" horiz-adv-x="792" d="M6 856q0 115 166 115q0 92 9 158.5t36 133t74 108.5t126 67.5t189 25.5q234 0 234 -106q0 -68 -72 -144q-51 53 -141 54q-92 0 -124 -53.5t-32 -167.5v-78q182 4 270 16q14 -29 15 -84q0 -68 -38 -93.5t-114 -27.5q-96 -2 -133 -2v-395q0 -252 37 -373q-70 -16 -150 -16 q-109 0 -149.5 24.5t-40.5 81.5q0 23 2 256.5t2 419.5q-39 0 -149 -12q-16 43 -17 92z" />
<glyph unicode="g" horiz-adv-x="1220" d="M47 -274q0 82 123 200q-47 33 -47 92q0 33 46 105t107 133q-100 49 -155 140t-55 210q0 166 134 276.5t337 110.5q186 0 317 -92q100 121 215 121q55 0 90 -33t35 -92q0 -43 -20 -104q-31 6 -60 6q-70 0 -141 -33q35 -74 35 -160q0 -186 -138 -294.5t-333 -108.5 q-35 0 -88 4q-20 -55 -21 -80q0 -41 135 -41h238q127 0 215 -62.5t88 -195.5q0 -154 -176 -249t-424 -95q-227 0 -342 69.5t-115 172.5zM354 -219q0 -100 183 -100q133 0 201.5 35.5t68.5 86.5q0 70 -160 70h-274q-18 -49 -19 -92zM373 625q0 -96 43 -161t119 -65 q90 0 128.5 46.5t38.5 142.5q0 90 -45 149.5t-122 59.5q-162 0 -162 -172z" />
<glyph unicode="h" horiz-adv-x="1116" d="M80 1495q78 27 166 27q78 0 121 -27t43 -104q0 -12 -7.5 -180.5t-7.5 -252.5v-90q129 123 293 123q139 0 229.5 -80t90.5 -227q0 -4 -3.5 -147.5t-3.5 -217.5q0 -176 35 -299q-85 -26 -172 -26h-6q-164 0 -164 125q0 74 6.5 271.5t6.5 238.5q0 84 -34 126t-87 42 q-86 0 -191 -101q4 -262 4 -379q0 -180 11 -315q-68 -6 -121 -6q-205 0 -205 98q0 8 5 142.5t5 279.5v500q0 293 -14 479z" />
<glyph unicode="i" horiz-adv-x="526" d="M76 1257q0 80 57 135.5t133 55.5t130.5 -55.5t54.5 -135.5q0 -82 -57.5 -137t-131.5 -55q-78 0 -132 54.5t-54 137.5zM100 952q78 27 166 27q78 0 121 -26.5t43 -104.5q0 -12 -7 -180t-7 -252q0 -291 35 -396q-83 -26 -164 -26h-6q-96 0 -134 33.5t-38 99.5q0 33 3 153.5 t3 192.5q0 293 -15 479z" />
<glyph unicode="j" horiz-adv-x="581" d="M-266 -385q0 37 17.5 66.5t68.5 74.5q25 -33 83 -58.5t115 -25.5q68 0 110 39t42 127q0 12 -1 108.5t-3 244t-2 282.5q0 293 -14 479q73 27 165 27q84 0 124 -29.5t40 -97.5q0 -10 -4 -88t-7 -185.5t-3 -189.5q0 -61 4 -239.5t4 -296.5q0 -180 -113.5 -275.5 t-326.5 -95.5q-111 0 -205 33.5t-94 99.5zM127 1257q0 80 57.5 135.5t133 55.5t130 -55.5t54.5 -135.5q0 -82 -57.5 -137t-131.5 -55q-78 0 -132 54.5t-54 137.5z" />
<glyph unicode="k" horiz-adv-x="1144" d="M80 127q0 12 7 180t7 252v457q0 293 -14 479q78 27 166 27q78 0 121 -27t43 -104q0 -14 -4.5 -98.5t-7.5 -214.5t-3 -253q172 164 355 164q106 0 182 -72.5t76 -183.5q0 -109 -70 -201t-201 -112q80 -154 121 -201q43 -51 111 -51q47 0 112 18q27 -53 27 -94 q0 -53 -67.5 -82.5t-139.5 -29.5q-80 0 -125 14t-90 59q-86 90 -199 353q-45 10 -45 55q0 27 23 86q41 -8 80 -8q82 0 126 46t44 105q0 49 -25.5 77t-68.5 28q-92 0 -226 -133v-160q0 -293 15 -479q-78 -27 -166 -27q-78 0 -121 26.5t-43 104.5z" />
<glyph unicode="l" horiz-adv-x="509" d="M80 1495q78 27 166 27q78 0 121 -27t43 -104q0 -12 -7.5 -180.5t-7.5 -252.5v-561q0 -270 35 -377q-83 -26 -164 -26h-6q-96 0 -134 33.5t-38 99.5q0 33 3 143.5t3 180.5v565q0 293 -14 479z" />
<glyph unicode="m" horiz-adv-x="1671" d="M80 952q84 27 160 27q150 0 170 -121q125 133 282 133q197 0 269 -157q126 157 301 157h2q131 0 215 -80t84 -227q0 -4 -3.5 -147.5t-3.5 -217.5q0 -176 35 -299q-85 -26 -172 -26h-6q-164 0 -164 125q0 74 6.5 271.5t6.5 238.5q0 84 -29 126t-76 42q-76 0 -166 -101 q4 -262 4 -379q0 -180 11 -315q-68 -6 -121 -6q-205 0 -205 98q0 10 5 149.5t5 274.5v115q0 84 -29.5 124t-74.5 40q-76 0 -166 -101q4 -262 4 -379q0 -180 10 -315q-68 -6 -121 -6q-204 0 -204 97q0 9 5 144.5t5 280.5q0 334 -39 434z" />
<glyph unicode="n" horiz-adv-x="1140" d="M80 952q84 27 160 27q150 0 170 -121q133 133 303 133q139 0 229 -80t90 -227q0 -4 -3 -147.5t-3 -217.5q0 -176 35 -299q-85 -26 -172 -26h-6q-164 0 -164 125q0 74 6 271.5t6 238.5q0 84 -33.5 126t-87.5 42q-86 0 -190 -101q4 -262 4 -379q0 -180 10 -315 q-68 -6 -121 -6q-204 0 -204 97q0 9 5 144.5t5 280.5q0 334 -39 434z" />
<glyph unicode="o" horiz-adv-x="1112" d="M59 475q0 236 136.5 377t359.5 141t360.5 -141t137.5 -377q0 -225 -137.5 -360t-360.5 -135t-359.5 135t-136.5 360zM367 492q0 -135 50 -224.5t138 -89.5q92 0 142.5 70.5t50.5 185.5q0 156 -51.5 259.5t-141.5 103.5q-88 0 -138 -84t-50 -221z" />
<glyph unicode="p" horiz-adv-x="1118" d="M80 942q74 37 162 37q45 0 75.5 -7t59.5 -41t33 -95q45 78 117.5 117.5t156.5 39.5q176 0 275.5 -130t99.5 -333q0 -135 -40 -255.5t-136.5 -207.5t-233.5 -87q-135 0 -231 90q0 -12 1 -110.5t2 -136.5t5 -113t12 -125t21 -87q-70 -16 -156 -16q-111 0 -149.5 26.5 t-38.5 90.5q0 201 3 497.5t3 413.5q0 326 -41 432zM420 694q2 -176 2 -473q68 -47 164 -47q82 0 122 97.5t40 228.5q0 152 -39 224.5t-101 72.5q-104 0 -188 -103z" />
<glyph unicode="q" horiz-adv-x="1120" d="M59 473q0 240 142.5 380t353.5 140q279 0 481 -159q-32 -340 -32 -821v-29q0 -371 36 -476q-81 -26 -168 -26h-6q-174 0 -174 129q0 102 4 270t4 219q-101 -120 -245 -120h-2q-168 0 -287 153q-106 139 -107 340zM369 514q0 -152 52 -244t128 -92q80 0 156 88 q4 248 24 475q-94 53 -166 54q-90 0 -142 -73t-52 -208z" />
<glyph unicode="r" horiz-adv-x="829" d="M80 952q78 27 166 27q78 0 121 -26.5t43 -104.5v-27q55 66 131.5 119t152.5 53q59 0 92 -27.5t33 -72.5q0 -84 -74 -164q-72 45 -133 45q-90 0 -211 -125q-6 -121 -6 -233q0 -291 35 -396q-83 -26 -164 -26h-6q-96 0 -134 33.5t-38 99.5q0 33 3 153.5t3 192.5 q0 293 -14 479z" />
<glyph unicode="s" horiz-adv-x="892" d="M53 152q0 111 166 172q20 -74 77.5 -111t121.5 -37q137 0 137 98q0 47 -72.5 77t-158.5 49.5t-159 88t-73 183.5q0 145 124 233t280 88q72 0 144.5 -15t131.5 -59.5t59 -107.5q0 -55 -50 -95t-150 -52q-16 63 -57.5 98t-90.5 35q-47 0 -79.5 -24.5t-32.5 -72.5 q0 -49 48 -77.5t116.5 -46t137 -43t117 -85t48.5 -151.5q0 -156 -124 -236.5t-292 -80.5q-53 0 -104.5 5t-118 20t-106.5 53t-40 94z" />
<glyph unicode="t" horiz-adv-x="876" d="M0 852q0 121 166 121h29q-4 125 -13 209q64 26 144 26h6q55 0 87 -5t61.5 -33.5t29.5 -84.5q0 -33 -6 -114q213 0 338 16q14 -29 14 -88q0 -109 -121 -115q-78 -4 -235 -4q-6 -203 -6 -405q0 -49 2 -75t11 -62.5t32.5 -53t60.5 -16.5q102 0 164 61q84 -59 84 -120 q0 -57 -70.5 -93t-169.5 -36q-223 0 -316 98t-93 293v409q-106 -2 -183 -14q-16 45 -16 86z" />
<glyph unicode="u" horiz-adv-x="1132" d="M80 952q80 27 166 27q176 0 176 -125q0 -68 -6 -252t-6 -221q0 -98 31.5 -151.5t78.5 -53.5q104 0 195 96q-2 80 -2 248q0 238 -15 432q82 27 158 27q82 0 127 -24.5t45 -102.5q0 -20 -5 -124.5t-7 -164.5v-147q0 -261 37 -396q-96 -26 -167 -26h-5q-66 0 -112 29.5 t-50 87.5q-150 -131 -324 -131q-289 0 -289 288q0 6 3.5 149.5t3.5 215.5q0 213 -33 319z" />
<glyph unicode="v" horiz-adv-x="1013" d="M-20 897q94 86 196 86q111 0 164 -123q102 -252 184 -563q145 383 146 602q0 33 -6 64q65 30 141 30q84 0 124 -25.5t40 -86.5q0 -119 -93.5 -381t-189.5 -391q-82 -115 -242 -115q-65 0 -135 18q-45 225 -152.5 516t-176.5 369z" />
<glyph unicode="w" horiz-adv-x="1562" d="M-20 897q94 86 196 86q111 0 164 -123q92 -279 154 -563q122 374 122 598q0 37 -6 68q66 30 142 30q84 0 125 -25.5t41 -86.5q0 -37 -9 -78q135 -268 185 -506q123 377 123 602q0 33 -7 64q66 30 137 30h5q84 0 125 -25.5t41 -86.5q0 -119 -89.5 -380t-179.5 -392 q-76 -115 -229 -115q-61 0 -127 18q-39 193 -94 410q-72 -199 -150 -313q-76 -115 -229 -115q-63 0 -127 18q-45 227 -145.5 517t-167.5 368z" />
<glyph unicode="x" horiz-adv-x="978" d="M33 870q82 123 205 123q92 0 141 -75q70 -109 139 -273q109 201 113 348q258 -14 258 -123q0 -102 -262 -393q139 -240 334 -375q-39 -47 -59.5 -67.5t-57.5 -37.5t-82 -17q-96 0 -152 83q-70 109 -151 283q-4 -6 -33 -49t-37 -57.5t-30.5 -53.5t-33 -65.5t-21.5 -64.5 t-17 -76q-238 4 -238 114q0 45 40 110.5t80 111.5t108.5 117t78.5 81q-78 127 -167 220t-156 136z" />
<glyph unicode="y" horiz-adv-x="1038" d="M0 879q133 104 229 104q47 0 75 -20.5t48 -65.5q33 -72 98.5 -295t102.5 -391q55 168 101 368.5t46 288.5q0 49 -6 95q70 30 150 30q153 0 153 -101q0 -97 -72.5 -327.5t-172.5 -443.5q-143 -301 -310 -541q-61 -92 -143 -92q-104 0 -201 125q172 129 320 362 q-276 766 -418 904z" />
<glyph unicode="z" horiz-adv-x="1011" d="M33 116.5q0 61.5 45 106.5l534 557q-61 4 -92 4q-211 0 -428 -65q-18 66 -18 127q4 72 63 94q59 25 230 25q317 0 532 -41q33 -33 33 -95q0 -59 -35 -94l-543 -573h15q207 0 510 82q24 -59 24 -116q0 -48 -19.5 -74.5t-42 -35t-63.5 -16.5q-115 -14 -299 -14 q-250 0 -411 24q-35 43 -35 104.5z" />
<glyph unicode="{" horiz-adv-x="835" d="M92 535v102q76 0 116 55.5t40 116.5v428q0 115 101.5 171t336.5 56q47 0 74 -2q8 -25 8 -67q0 -59 -23.5 -81t-74.5 -22q-106 0 -132 -24.5t-26 -98.5v-364q0 -72 -52.5 -136.5t-107.5 -82.5q55 -18 107.5 -83t52.5 -132v-367q0 -51 6 -72.5t40 -36t110 -14.5 q51 0 74.5 -21.5t23.5 -80.5q0 -43 -8 -68q-27 -2 -74 -2q-236 0 -338 56.5t-102 171.5v428q0 61 -38 115.5t-114 54.5z" />
<glyph unicode="|" horiz-adv-x="1177" d="M475 1499q47 10 88 10q135 0 135 -112q0 -10 -5 -155.5t-10 -384.5t-5 -476v-35q0 -686 24 -846q-47 -10 -88 -10q-135 0 -135 113q0 10 5 155.5t10.5 383.5t5.5 476v35q0 686 -25 846z" />
<glyph unicode="}" horiz-adv-x="806" d="M39 1395q0 43 8 67q27 2 74 2q236 0 337 -56t101 -171v-428q0 -61 40 -116.5t116 -55.5v-102q-76 0 -114 -54.5t-38 -115.5v-428q0 -115 -102.5 -171.5t-337.5 -56.5q-47 0 -74 2q-8 25 -8 68q0 59 23.5 80.5t74.5 21.5q76 0 110 14.5t40 36t6 72.5v367q0 68 52.5 132.5 t107.5 82.5q-55 18 -107.5 82.5t-52.5 136.5v364q0 51 -7 73t-41 36t-110 14q-51 0 -74.5 21.5t-23.5 81.5z" />
<glyph unicode="~" horiz-adv-x="1224" d="M53 547q0 168 262 168q113 0 292 -41t265 -41q150 0 230 72q70 -74 69 -142q0 -86 -93 -127t-220 -41q-72 0 -242 41t-262 41q-152 0 -231 -71q-70 73 -70 141z" />
<glyph unicode="&#xa1;" horiz-adv-x="645" d="M119 811q0 78 56 130t130 52q78 0 131 -51t53 -131q0 -76 -56 -129t-132 -53q-74 0 -128 53t-54 129zM145 -295q0 63 16.5 218t16.5 241q0 229 -26 301q78 39 151 39q72 0 120 -33t48 -94q0 -16 -1 -75.5t-1 -102.5q0 -473 43 -625q-94 -23 -193 -23q-174 0 -174 154z " />
<glyph unicode="&#xa2;" d="M123 670q0 221 133 361t354 171q-4 102 -12 189q35 10 51 10q78 0 78 -80v-111q74 -2 158 -20.5t154.5 -62.5t70.5 -103q0 -51 -50 -93t-136 -57q-84 131 -197 140l2 -692q113 4 197 143q86 -14 135 -57.5t49 -98.5q0 -82 -121 -129t-258 -53q4 -84 12 -154l-45 -6 q-82 0 -88 80v86q-217 25 -352 166t-135 371zM434 666q0 -113 44 -201t132 -123v655q-82 -35 -129 -123.5t-47 -207.5z" />
<glyph unicode="&#xa3;" d="M100 180q141 72 221 175.5t80 191.5q0 45 -14 102q-178 -4 -221 -8q-18 35 -19 84q0 41 45.5 59.5t135.5 24.5q-72 160 -72 240q0 121 118 225t298 104q104 0 159.5 -36.5t55.5 -92.5q0 -39 -31 -76.5t-84 -60.5q-27 39 -75 64.5t-95 25.5q-96 0 -96 -94 q0 -29 14.5 -66.5t30.5 -64.5t49 -76t47 -74q205 4 289 19q27 -55 27 -105q0 -100 -134 -100h-108q4 -29 4 -47q0 -186 -311 -397q45 -6 166 -7q223 0 421 70q55 -68 56 -133q0 -59 -49 -90q-68 -43 -369 -43q-356 0 -504 22q-35 45 -35 164z" />
<glyph unicode="&#xa5;" d="M10 1243q57 72 101.5 101.5t111.5 29.5q55 0 89 -22.5t67 -71.5q45 -70 244 -455q72 113 153.5 298.5t83.5 250.5q41 4 70 4q201 0 200 -125q0 -51 -38 -120q-119 -213 -269 -408h74q74 0 197 12l6 -45q0 -82 -80 -88h-277v-125l154 2q74 0 197 13l6 -45q0 -82 -80 -89 h-277q0 -213 37 -331q-61 -37 -178 -37q-162 0 -162 129q0 51 4 239h-149q-78 0 -201 -12q-10 35 -10 51q0 78 80 78h121h159v127h-149q-78 0 -201 -12q-10 35 -10 51q0 78 80 78h121h110q-68 143 -170 298t-215 224z" />
<glyph unicode="&#xa6;" d="M475 387q47 10 88 10q135 0 135 -112q0 -4 -5 -64.5t-10 -159t-5 -196.5v-15q0 -283 24 -348q-47 -12 -88 -12q-135 0 -135 111q0 4 5 64.5t10.5 160t5.5 197.5v14q0 285 -25 350zM475 1499q47 10 88 10q135 0 135 -112q0 -4 -5 -64.5t-10 -159t-5 -196.5v-14 q0 -283 24 -349q-47 -12 -88 -12q-135 0 -135 111q0 4 5 64.5t10.5 160t5.5 197.5v14q0 285 -25 350z" />
<glyph unicode="&#xa7;" horiz-adv-x="991" d="M59 14q0 88 134 140q72 -129 256 -129q145 0 145 125q0 66 -54.5 112.5t-131 78.5t-153.5 67.5t-131 105.5t-54 168q0 131 110 213q-65 86 -65 195q0 127 117.5 206.5t308.5 79.5q119 0 233.5 -43t114.5 -119q0 -115 -178 -157q-16 59 -69.5 96t-113.5 37 q-63 0 -97 -26.5t-34 -69.5q0 -63 54.5 -113.5t132.5 -87.5t155.5 -79t132 -113.5t54.5 -165.5q0 -125 -105 -211q68 -82 68 -185q0 -125 -116 -212t-322 -87q-45 0 -102.5 7.5t-127 24.5t-116 55t-46.5 87zM281 764q0 -74 62.5 -128t191.5 -117.5t182 -100.5q2 6 2 20 q0 63 -64.5 116.5t-187.5 122.5t-184 116q-2 -10 -2 -29z" />
<glyph unicode="&#xa8;" horiz-adv-x="872" d="M12 1257q0 80 57.5 135.5t133.5 55.5t130 -55.5t54 -135.5q0 -82 -57 -137t-131 -55q-78 0 -132.5 54.5t-54.5 137.5zM481 1257q0 80 57.5 135.5t133.5 55.5t130 -55.5t54 -135.5q0 -82 -57 -137t-131 -55q-78 0 -132.5 54.5t-54.5 137.5z" />
<glyph unicode="&#xa9;" horiz-adv-x="1757" d="M266 655q0 311 205 518t506 207q297 0 501.5 -207t204.5 -518q0 -307 -205.5 -516t-500.5 -209q-301 0 -506 208t-205 517zM414 655.5q0 -272.5 162.5 -440.5t400.5 -168q233 0 396 168t163 440q0 270 -163 439.5t-396 169.5q-238 0 -400.5 -168t-162.5 -440.5zM547 653 q0 233 135 354t307 121q61 0 126 -17t118 -59t53 -102q0 -80 -149 -100q-16 63 -63.5 96t-98.5 33q-82 0 -137.5 -84t-55.5 -219q0 -172 71 -251t167 -79q111 0 180 94q84 -51 84 -110q0 -53 -84 -93t-199 -40q-84 0 -159.5 23.5t-144 73.5t-109.5 143t-41 216z" />
<glyph unicode="&#xaa;" horiz-adv-x="694" d="M61 909q0 111 113 142q98 29 232 32q0 68 -17.5 94.5t-73.5 26.5q-98 0 -131 -76q-43 4 -74.5 28t-31.5 54q0 33 27.5 56.5t71.5 33t79 13.5t70 4q111 0 186.5 -43t75.5 -137q0 -27 -1 -88.5t-1 -85.5q0 -139 20 -199q-33 -23 -100 -23q-88 0 -98 64q-55 -72 -156 -72 q-76 0 -133.5 47t-57.5 129zM84 518q0 47 35 80t108 33q14 0 79 -6.5t106 -6.5h28q100 0 183 31q20 -51 20 -98q0 -51 -41 -82t-110 -31q-25 0 -89.5 7.5t-99.5 7.5h-10q-88 0 -195 -33q-14 59 -14 98zM262 913q0 -59 51 -59q61 0 93 31v33q0 46 4 69q-53 -6 -78 -11 t-47.5 -20.5t-22.5 -42.5z" />
<glyph unicode="&#xab;" horiz-adv-x="1185" d="M94 481q225 309 375 432q90 -41 117.5 -68.5t27.5 -58.5q0 -29 -64 -124t-136 -181q68 -82 135 -184t67 -133q0 -61 -145 -115q-154 129 -377 432zM625 481q225 309 374 432q90 -41 118 -68.5t28 -58.5q0 -29 -64.5 -124t-136.5 -181q68 -82 135.5 -184t67.5 -133 q0 -61 -146 -115q-154 129 -376 432z" />
<glyph unicode="&#xac;" d="M117 580q0 108 123 108h774q6 -477 6 -483q0 -74 -27.5 -106.5t-101.5 -32.5q-78 0 -131 24q51 174 51 414v31h-381q-166 0 -293 -43q-20 45 -20 88z" />
<glyph unicode="&#xad;" horiz-adv-x="579" d="M51 514q0 55 37 95t117 40q12 0 71.5 -6t94.5 -6h16q88 0 160 31q22 -62 22 -117q0 -61 -42 -98t-111 -37q-23 0 -82.5 7t-91.5 7q-78 0 -176 -33q-14 72 -15 117z" />
<glyph unicode="&#xae;" horiz-adv-x="1198" d="M174 901q0 205 135 341t334 136q195 0 331 -137t136 -340t-136 -340t-331 -137q-199 0 -334 137t-135 340zM295 901q0 -168 100.5 -271.5t247.5 -103.5q145 0 245.5 103.5t100.5 271.5t-100.5 271.5t-245.5 103.5q-147 0 -247.5 -103.5t-100.5 -271.5zM434 1147 q154 12 199 12q229 0 229 -160q0 -104 -123 -143q14 -29 95 -119q7 -8 36 -8q8 -16 9 -33q0 -23 -20.5 -36t-49.5 -13q-51 0 -82 37q-88 92 -133 174v-47q0 -86 18 -139q-39 -20 -75 -21q-96 0 -97 62q0 18 2 61t2 60v137q0 106 -10 176zM594 926q8 -2 41 -2q80 0 80 75 q0 37 -28 60.5t-66 23.5h-27v-157z" />
<glyph unicode="&#xaf;" horiz-adv-x="720" d="M0 1229q0 111 84 110q8 0 108.5 -8t147.5 -8h57q131 0 312 16q12 -74 12 -104q0 -109 -94 -109l-43 4q-43 4 -110.5 7.5t-129.5 3.5h-59q-135 0 -273 -15q-12 74 -12 103z" />
<glyph unicode="&#xb0;" horiz-adv-x="860" d="M82 1120q0 145 93 240.5t243 95.5q139 0 230 -93t91 -233q0 -147 -92 -242t-239 -95q-143 0 -234.5 93t-91.5 234zM258 1120q0 -82 38 -134t107.5 -52t108.5 55t39 139q0 80 -37 133.5t-104 53.5q-72 0 -112 -55.5t-40 -139.5z" />
<glyph unicode="&#xb1;" d="M100 582q0 47 26 85t81 38q16 0 99 -8.5t208 -12.5q0 150 -25 352q27 8 89 8q51 0 86.5 -28.5t35.5 -75.5t-10 -116.5t-10 -141.5q174 0 385 23q8 -25 8 -87q0 -51 -29.5 -86.5t-76.5 -35.5q-49 0 -133 10t-156 10q0 -133 22 -258q-66 -12 -88 -12q-49 0 -86 25.5 t-37 74.5q0 20 10.5 86t10.5 86q-70 0 -401 -22q-8 43 -9 86zM127 80q0 47 25.5 85t78.5 38q8 0 138.5 -10.5t224.5 -10.5q274 0 416 21q12 -25 12 -86q0 -51 -28.5 -87t-75.5 -36q-35 0 -157 11t-183 11q-231 0 -443 -22q-8 43 -8 86z" />
<glyph unicode="&#xb2;" horiz-adv-x="993" d="M80 555q0 31 6 63q100 66 152.5 102t138.5 107.5t127 140t41 138.5q0 86 -105 86q-53 0 -105 -37t-87 -113q-63 8 -101 42t-38 79q0 70 84 127q131 88 296 88q170 0 259.5 -71.5t89.5 -182.5q0 -61 -28 -120.5t-61.5 -101.5t-99 -94t-104.5 -79t-115 -74q37 -2 109 -2 q188 0 319 39q49 -76 49 -131q0 -70 -57 -86q-88 -25 -346 -24q-84 0 -169 2t-145 2q-111 0 -110 100z" />
<glyph unicode="&#xb3;" horiz-adv-x="923" d="M80 555q0 78 98 139q78 -96 213 -96q70 0 108 27.5t38 101.5q0 57 -51.5 96t-161.5 39q-53 0 -54 76q0 33 6 53q6 0 16.5 1t16.5 1q104 0 156.5 41t52.5 107q0 74 -92 73q-57 0 -116.5 -28.5t-84.5 -69.5q-98 25 -98 115q0 68 117.5 107.5t208.5 39.5q182 0 271 -59 t89 -160q0 -164 -174 -221q96 -31 143 -94.5t47 -138.5q0 -127 -109.5 -203t-326.5 -76q-35 0 -79 5t-101 17.5t-95 40t-38 66.5z" />
<glyph unicode="&#xb4;" horiz-adv-x="577" d="M80 1176q0 39 53 78.5t123 70.5t153 85t126 112q109 -59 108 -142q0 -59 -49 -92q-49 -31 -227.5 -105.5t-214.5 -111.5q-72 57 -72 105z" />
<glyph unicode="&#xb5;" horiz-adv-x="1126" d="M74 952q80 27 166 27q176 0 176 -125q0 -68 -6.5 -252t-6.5 -221q0 -98 32 -151.5t79 -53.5q104 0 195 96q-2 80 -2 248q0 238 -15 432q82 27 158 27q82 0 127 -24.5t45 -102.5q0 -29 -6 -162t-6 -274q0 -261 37 -396q-100 -27 -173 -26q-66 0 -111.5 29.5t-49.5 87.5 q-29 -55 -86.5 -93t-116.5 -38q-84 0 -129 45q-12 -61 -12 -136q0 -170 61 -391q-51 -16 -141 -16q-111 0 -150 26.5t-39 90.5q0 197 3 488.5t3 406.5v139q0 213 -32 319z" />
<glyph unicode="&#xb6;" horiz-adv-x="1032" d="M59 797q0 176 113 279.5t283 103.5q57 0 176 -4.5t157 -4.5q141 0 203 3q14 -35 15 -64q0 -84 -162 -84q-25 -291 -25 -682q0 -25 4 -207t4 -274q0 -57 -26.5 -88t-104.5 -31q-70 0 -116 18q39 106 38 469q1 187 21 797q-57 0 -109 6q-18 -199 -18 -551q0 -51 -102 -51 q-143 0 -247 101.5t-104 263.5z" />
<glyph unicode="&#xb7;" horiz-adv-x="481" d="M53 537q0 80 57.5 135t133 55t130 -55.5t54.5 -134.5q0 -82 -57 -137.5t-131 -55.5q-78 0 -132.5 54.5t-54.5 138.5z" />
<glyph unicode="&#xb8;" horiz-adv-x="471" d="M39 -424q0 55 51 111q27 -27 70 -27q61 0 61 78q0 41 -46 78t-46 73q0 68 59 177l177 -11q-37 -111 -37 -116q0 -23 28.5 -43.5t62.5 -39t62.5 -58.5t28.5 -93q0 -80 -95.5 -150.5t-232.5 -70.5q-72 0 -107.5 26.5t-35.5 65.5z" />
<glyph unicode="&#xb9;" horiz-adv-x="813" d="M92 1225q0 86 84 108q162 45 240 45q133 0 133 -96q0 -10 -2 -67.5t-5 -145.5t-3 -174v-74q0 -127 12 -190q72 0 149 8q18 -41 19 -84q0 -47 -24.5 -78t-76.5 -31q-16 0 -104 2.5t-195 2.5q-137 0 -213 -2q-12 37 -12 75q0 113 111 113h88q0 18 1 125.5t1 183.5 q0 123 -6 240q-104 -6 -183 -33q-14 31 -14 72z" />
<glyph unicode="&#xba;" horiz-adv-x="727" d="M61 1034q0 129 83 206t218 77q137 0 220.5 -77t83.5 -206q0 -127 -83.5 -205.5t-220.5 -78.5q-135 0 -218 78.5t-83 205.5zM84 518q0 47 35 80t108 33q14 0 79 -6.5t106 -6.5h28q100 0 183 31q20 -51 20 -98q0 -51 -41 -82t-110 -31q-25 0 -89.5 7.5t-99.5 7.5h-10 q-88 0 -195 -33q-14 59 -14 98zM240 1051q0 -82 32.5 -137.5t89.5 -55.5q59 0 93 44t34 114q0 82 -34.5 135t-92.5 53q-59 0 -90.5 -42t-31.5 -111z" />
<glyph unicode="&#xbb;" horiz-adv-x="1185" d="M94 164q0 31 67.5 133t135.5 184q-72 86 -136.5 181.5t-64.5 123.5q0 31 28 58.5t118 68.5q150 -123 374 -432q-223 -303 -376 -432q-145 53 -146 115zM625 164q0 31 67 133t135 184q-72 86 -136 181.5t-64 123.5q0 31 27.5 58.5t117.5 68.5q150 -123 375 -432 q-223 -303 -377 -432q-145 53 -145 115z" />
<glyph unicode="&#xbc;" horiz-adv-x="2086" d="M113 1225q0 86 84 108q162 45 239 45q133 0 133 -96q0 -10 -2 -67.5t-5 -145.5t-3 -174v-74q0 -127 12 -190q72 0 150 8q18 -41 18 -84q0 -47 -24.5 -78t-75.5 -31q-16 0 -104.5 2.5t-194.5 2.5q-137 0 -213 -2q-12 37 -12 75q0 113 110 113h88q0 18 1 125.5t1 183.5 q0 123 -6 240q-104 -6 -182 -33q-14 31 -14 72zM549 -135q0 24 18 57l482 971q201 403 290 620q53 0 98.5 -23.5t45.5 -66.5q0 -18 -62 -143l-61 -126q-21 -42 -42.5 -84t-110.5 -219t-228 -456q-197 -399 -287 -618q-59 0 -101 22.5t-42 65.5zM1139 338q0 12 1 32.5t1 28.5 q76 129 187.5 275.5t193.5 218.5q47 39 172 39q70 0 135 -10q0 -4 -3 -75t-6 -191.5t-3 -249.5q96 6 137 24q20 -37 20 -90q0 -66 -40 -90.5t-119 -24.5q0 -137 30 -229q-61 -16 -112 -16q-90 0 -121 24.5t-31 81.5q0 51 2 137q-276 0 -381 15q-39 8 -51 29.5t-12 70.5z M1374 399q43 -4 213 -4q0 227 2 303q-129 -154 -215 -299z" />
<glyph unicode="&#xbd;" horiz-adv-x="2207" d="M113 1225q0 86 84 108q162 45 239 45q133 0 133 -96q0 -10 -2 -67.5t-5 -145.5t-3 -174v-74q0 -127 12 -190q72 0 150 8q18 -41 18 -84q0 -47 -24.5 -78t-75.5 -31q-16 0 -104.5 2.5t-194.5 2.5q-137 0 -213 -2q-12 37 -12 75q0 113 110 113h88q0 18 1 125.5t1 183.5 q0 123 -6 240q-104 -6 -182 -33q-14 31 -14 72zM549 -135q0 24 18 57l482 971q201 403 290 620q53 0 98.5 -23.5t45.5 -66.5q0 -18 -62 -143l-61 -126q-21 -42 -42.5 -84t-110.5 -219t-228 -456q-197 -399 -287 -618q-59 0 -101 22.5t-42 65.5zM1274 102q0 29 6 64 q100 66 152.5 101.5t138.5 107t127 140.5t41 138q0 86 -105 86q-53 0 -105 -36.5t-87 -112.5q-63 8 -101 42t-38 79q0 70 83 127q131 88 297 88q170 0 259.5 -72t89.5 -182q0 -61 -28 -120.5t-61.5 -101.5t-99 -94.5t-104.5 -79t-115 -73.5q37 -2 109 -2q188 0 319 39 q49 -76 49 -131q0 -70 -57 -86q-88 -25 -346 -25q-84 0 -169 2t-145 2q-111 0 -110 100z" />
<glyph unicode="&#xbe;" horiz-adv-x="2164" d="M100 555q0 78 99 139q78 -96 213 -96q70 0 107.5 27.5t37.5 101.5q0 57 -51 96t-162 39q-53 0 -53 76q0 33 6 53q6 0 16.5 1t16.5 1q104 0 156.5 41t52.5 107q0 74 -93 73q-57 0 -116.5 -28.5t-83.5 -69.5q-98 25 -99 115q0 68 118 107.5t208 39.5q182 0 271.5 -59 t89.5 -160q0 -164 -175 -221q96 -31 143.5 -94.5t47.5 -138.5q0 -127 -109.5 -203t-326.5 -76q-35 0 -79 5t-101.5 17.5t-95.5 40t-38 66.5zM625 -135q0 24 18 57l481 971q201 403 291 620q53 0 98.5 -23.5t45.5 -66.5q0 -18 -62 -143l-61 -126q-21 -42 -42.5 -84 t-110.5 -219t-228 -456q-197 -399 -287 -618q-59 0 -101 22.5t-42 65.5zM1214 338q0 12 1.5 32.5t1.5 28.5q76 129 187 275.5t193 218.5q47 39 172 39q70 0 136 -10q0 -4 -3.5 -75t-6.5 -191.5t-3 -249.5q96 6 138 24q20 -37 20 -90q0 -66 -40 -90.5t-120 -24.5 q0 -137 31 -229q-61 -16 -113 -16q-90 0 -120.5 24.5t-30.5 81.5q0 51 2 137q-276 0 -381 15q-39 8 -51.5 29.5t-12.5 70.5zM1450 399q43 -4 213 -4q0 227 2 303q-129 -154 -215 -299z" />
<glyph unicode="&#xbf;" horiz-adv-x="831" d="M27 -176q0 84 29.5 151.5t71.5 110.5t84 83t71.5 89t29.5 109q0 43 -14 94q84 43 152 43q92 0 134 -37t42 -90q0 -76 -44 -150.5t-97.5 -127t-97.5 -124t-44 -141.5q0 -51 31 -78.5t84 -27.5t99 42t58 111q195 -23 195 -137q0 -90 -106.5 -141.5t-255.5 -51.5 q-55 0 -107.5 6.5t-112 25t-102.5 47t-71.5 78.5t-28.5 116zM262 811q0 78 56.5 130t130.5 52q78 0 131 -51t53 -131q0 -76 -56.5 -129t-132.5 -53q-74 0 -128 53t-54 129z" />
<glyph unicode="&#xc0;" horiz-adv-x="1257" d="M8 102q0 43 71 209t189.5 459t200.5 573q96 14 158 15q172 0 221 -150q152 -467 217 -635q160 -416 217 -528q-96 -66 -190 -65q-121 0 -156 77q-23 53 -60.5 151.5t-70.5 178.5q-160 -4 -191 -4q-84 0 -182 8q-139 -336 -168 -428q-72 10 -104.5 16.5t-75.5 21.5 t-59.5 40t-16.5 61zM203 1796q0 80 137 146q41 -53 114.5 -108.5t133 -91.5t105.5 -80t46 -83q0 -55 -80 -113q-76 55 -201.5 120t-190 111t-64.5 99zM485 590q98 -4 156 -4q80 0 119 4q-33 113 -78 290t-53 205q-127 -442 -144 -495z" />
<glyph unicode="&#xc1;" horiz-adv-x="1257" d="M8 102q0 43 71 209t189.5 459t200.5 573q96 14 158 15q172 0 221 -150q152 -467 217 -635q160 -416 217 -528q-96 -66 -190 -65q-121 0 -156 77q-23 53 -60.5 151.5t-70.5 178.5q-160 -4 -191 -4q-84 0 -182 8q-139 -336 -168 -428q-72 10 -104.5 16.5t-75.5 21.5 t-59.5 40t-16.5 61zM438 1571q0 39 53.5 79t123 70.5t152.5 85t126 111.5q109 -59 108 -141q0 -60 -49 -93q-49 -31 -227 -105.5t-215 -111.5q-72 57 -72 105zM485 590q98 -4 156 -4q80 0 119 4q-33 113 -78 290t-53 205q-127 -442 -144 -495z" />
<glyph unicode="&#xc2;" horiz-adv-x="1257" d="M8 102q0 43 71 209t189.5 459t200.5 573q96 14 158 15q172 0 221 -150q152 -467 217 -635q160 -416 217 -528q-96 -66 -190 -65q-121 0 -156 77q-23 53 -60.5 151.5t-70.5 178.5q-160 -4 -191 -4q-84 0 -182 8q-139 -336 -168 -428q-72 10 -104.5 16.5t-75.5 21.5 t-59.5 40t-16.5 61zM236 1552q167 183 370 316q336 -184 336 -293q0 -35 -36 -70t-91 -47q-110 128 -213 182q-203 -166 -252 -165q-35 0 -58.5 15t-55.5 62zM485 590q98 -4 156 -4q80 0 119 4q-33 113 -78 290t-53 205q-127 -442 -144 -495z" />
<glyph unicode="&#xc3;" horiz-adv-x="1257" d="M8 102q0 43 71 209t189.5 459t200.5 573q96 14 158 15q172 0 221 -150q152 -467 217 -635q160 -416 217 -528q-96 -66 -190 -65q-121 0 -156 77q-23 53 -60.5 151.5t-70.5 178.5q-160 -4 -191 -4q-84 0 -182 8q-139 -336 -168 -428q-72 10 -104.5 16.5t-75.5 21.5 t-59.5 40t-16.5 61zM236 1559q0 70 82.5 137t179.5 67q49 0 140 -44t126 -44q47 0 137 82q27 -4 53.5 -27.5t26.5 -56.5q0 -72 -82 -138.5t-180 -66.5q-49 0 -139.5 44t-124.5 44q-45 0 -140 -81q-80 29 -79 84zM485 590q98 -4 156 -4q80 0 119 4q-33 113 -78 290t-53 205 q-127 -442 -144 -495z" />
<glyph unicode="&#xc4;" horiz-adv-x="1257" d="M8 102q0 43 71 209t189.5 459t200.5 573q96 14 158 15q172 0 221 -150q152 -467 217 -635q160 -416 217 -528q-96 -66 -190 -65q-121 0 -156 77q-23 53 -60.5 151.5t-70.5 178.5q-160 -4 -191 -4q-84 0 -182 8q-139 -336 -168 -428q-72 10 -104.5 16.5t-75.5 21.5 t-59.5 40t-16.5 61zM174 1653q0 80 57.5 135t133 55t130 -55t54.5 -135q0 -84 -57.5 -138.5t-131.5 -54.5q-78 0 -132 54.5t-54 138.5zM485 590q98 -4 156 -4q80 0 119 4q-33 113 -78 290t-53 205q-127 -442 -144 -495zM643 1653q0 80 57.5 135t133 55t130 -55t54.5 -135 q0 -84 -57.5 -138.5t-131.5 -54.5q-78 0 -132 54.5t-54 138.5z" />
<glyph unicode="&#xc5;" horiz-adv-x="1257" d="M8 102q0 43 71 209t189.5 459t200.5 573q96 14 158 15q172 0 221 -150q152 -467 217 -635q160 -416 217 -528q-96 -66 -190 -65q-121 0 -156 77q-23 53 -60.5 151.5t-70.5 178.5q-160 -4 -191 -4q-84 0 -182 8q-139 -336 -168 -428q-72 10 -104.5 16.5t-75.5 21.5 t-59.5 40t-16.5 61zM369 1739q0 109 66.5 174t170.5 65q106 0 171 -65.5t65 -173.5q0 -106 -65 -172t-171 -66q-104 0 -170.5 65.5t-66.5 172.5zM485 590q98 -4 156 -4q80 0 119 4q-33 113 -78 290t-53 205q-127 -442 -144 -495zM494 1749q0 -63 30.5 -104t81.5 -41 q53 0 82 34t29 91q0 63 -31 105t-80 42q-51 0 -81.5 -35t-30.5 -92z" />
<glyph unicode="&#xc6;" horiz-adv-x="1671" d="M0 111q0 31 30.5 93t112.5 205.5t138 247.5q205 389 325 682q246 25 602 25q295 0 383 -33q39 -14 39 -82q0 -80 -24 -139q-135 43 -457 43q-41 0 -143 -4q8 -66 8 -315h162q131 0 241 12q12 -27 13 -86q0 -76 -35 -105.5t-125 -29.5h-256q0 -346 16 -416q90 -4 146 -4 q334 0 430 47q25 -61 24 -141q0 -70 -54 -92.5t-216 -22.5q-489 0 -567 4q-59 2 -80 28.5t-21 88.5q0 29 4 266h-57q-33 0 -172 4q-170 -295 -217 -407q-147 16 -198.5 46.5t-51.5 84.5zM532 590q106 -4 164 -4v401q-4 -8 -164 -397z" />
<glyph unicode="&#xc7;" horiz-adv-x="1288" d="M66 680q0 328 194.5 513t527.5 185q178 0 300 -64.5t122 -158.5q0 -72 -59 -117t-158 -57q-35 94 -110.5 142t-161.5 48q-141 0 -232.5 -129t-91.5 -321q0 -227 93.5 -381t261.5 -154q94 0 181 43t142 133q156 -72 156 -167q0 -59 -50.5 -104.5t-125 -68t-142 -32.5 t-122.5 -10q-27 0 -80 4q-10 -31 -11 -45q0 -23 29 -43.5t62.5 -39t62.5 -58.5t29 -93q0 -80 -95.5 -150.5t-232.5 -70.5q-72 0 -107.5 26.5t-35.5 65.5q0 55 51 111q27 -27 69 -27q61 0 62 78q0 41 -46 78t-46 73q0 41 35 125q-209 59 -340 223t-131 443z" />
<glyph unicode="&#xc8;" horiz-adv-x="1089" d="M88 1346q264 18 539 18q295 0 383 -33q39 -14 39 -82q0 -80 -25 -139q-135 43 -457 43q-41 0 -143 -4q8 -66 8 -315h162q131 0 242 12q12 -27 12 -86q0 -76 -35 -105.5t-125 -29.5h-256q0 -346 17 -416q90 -4 145 -4q334 0 430 47q25 -61 25 -141q0 -70 -54.5 -92.5 t-216.5 -22.5q-489 0 -567 4q-59 2 -79.5 28.5t-20.5 88.5q0 33 2 151.5t2 190.5v409q0 289 -27 478zM164 1796q0 80 137 146q41 -53 114.5 -108.5t133 -91.5t105.5 -80t46 -83q0 -55 -79 -113q-76 55 -202 120t-190.5 111t-64.5 99z" />
<glyph unicode="&#xc9;" horiz-adv-x="1089" d="M88 1346q264 18 539 18q295 0 383 -33q39 -14 39 -82q0 -80 -25 -139q-135 43 -457 43q-41 0 -143 -4q8 -66 8 -315h162q131 0 242 12q12 -27 12 -86q0 -76 -35 -105.5t-125 -29.5h-256q0 -346 17 -416q90 -4 145 -4q334 0 430 47q25 -61 25 -141q0 -70 -54.5 -92.5 t-216.5 -22.5q-489 0 -567 4q-59 2 -79.5 28.5t-20.5 88.5q0 33 2 151.5t2 190.5v409q0 289 -27 478zM399 1571q0 39 53.5 79t123 70.5t152.5 85t126 111.5q109 -59 109 -141q-1 -60 -50 -93q-49 -31 -227 -105.5t-215 -111.5q-72 57 -72 105z" />
<glyph unicode="&#xca;" horiz-adv-x="1089" d="M88 1346q264 18 539 18q295 0 383 -33q39 -14 39 -82q0 -80 -25 -139q-135 43 -457 43q-41 0 -143 -4q8 -66 8 -315h162q131 0 242 12q12 -27 12 -86q0 -76 -35 -105.5t-125 -29.5h-256q0 -346 17 -416q90 -4 145 -4q334 0 430 47q25 -61 25 -141q0 -70 -54.5 -92.5 t-216.5 -22.5q-489 0 -567 4q-59 2 -79.5 28.5t-20.5 88.5q0 33 2 151.5t2 190.5v409q0 289 -27 478zM197 1552q167 183 370 316q336 -184 336 -293q0 -35 -36 -70t-91 -47q-110 128 -213 182q-203 -166 -252 -165q-35 0 -58.5 15t-55.5 62z" />
<glyph unicode="&#xcb;" horiz-adv-x="1089" d="M88 1346q264 18 539 18q295 0 383 -33q39 -14 39 -82q0 -80 -25 -139q-135 43 -457 43q-41 0 -143 -4q8 -66 8 -315h162q131 0 242 12q12 -27 12 -86q0 -76 -35 -105.5t-125 -29.5h-256q0 -346 17 -416q90 -4 145 -4q334 0 430 47q25 -61 25 -141q0 -70 -54.5 -92.5 t-216.5 -22.5q-489 0 -567 4q-59 2 -79.5 28.5t-20.5 88.5q0 33 2 151.5t2 190.5v409q0 289 -27 478zM135 1653q0 80 57.5 135t133 55t130 -55t54.5 -135q0 -84 -57 -138.5t-131 -54.5q-78 0 -132.5 54.5t-54.5 138.5zM604 1653q0 80 57.5 135t133 55t130 -55t54.5 -135 q0 -84 -57 -138.5t-131 -54.5q-78 0 -132.5 54.5t-54.5 138.5z" />
<glyph unicode="&#xcc;" horiz-adv-x="528" d="M-127 1796q0 80 137 146q41 -53 115 -108.5t133 -91.5t105.5 -80t46.5 -83q0 -55 -80 -113q-76 55 -202 120t-190.5 111t-64.5 99zM88 1348q78 16 162 16q78 0 132 -27.5t54 -85.5q0 -10 -7 -164.5t-7 -259.5v-411q0 -229 49 -393q-76 -29 -186 -29q-41 0 -68 5 t-56.5 20.5t-44 53.5t-14.5 97q0 39 2 146.5t2 156.5v410q0 225 -18 465z" />
<glyph unicode="&#xcd;" horiz-adv-x="528" d="M88 1348q78 16 162 16q78 0 132 -27.5t54 -85.5q0 -10 -7 -164.5t-7 -259.5v-411q0 -229 49 -393q-76 -29 -186 -29q-41 0 -68 5t-56.5 20.5t-44 53.5t-14.5 97q0 39 2 146.5t2 156.5v410q0 225 -18 465zM109 1571q0 39 53 79t122.5 70.5t152.5 85t126 111.5 q109 -59 109 -141q0 -60 -49 -93q-49 -31 -227.5 -105.5t-215.5 -111.5q-72 57 -71 105z" />
<glyph unicode="&#xce;" horiz-adv-x="528" d="M-94 1552q167 183 370 316q336 -184 336 -293q0 -35 -35.5 -70t-91.5 -47q-110 128 -213 182q-203 -166 -252 -165q-35 0 -58 15t-56 62zM88 1348q78 16 162 16q78 0 132 -27.5t54 -85.5q0 -10 -7 -164.5t-7 -259.5v-411q0 -229 49 -393q-76 -29 -186 -29q-41 0 -68 5 t-56.5 20.5t-44 53.5t-14.5 97q0 39 2 146.5t2 156.5v410q0 225 -18 465z" />
<glyph unicode="&#xcf;" horiz-adv-x="528" d="M-156 1653q0 80 57.5 135t133.5 55t130 -55t54 -135q0 -84 -57 -138.5t-131 -54.5q-78 0 -132.5 54.5t-54.5 138.5zM88 1348q78 16 162 16q78 0 132 -27.5t54 -85.5q0 -10 -7 -164.5t-7 -259.5v-411q0 -229 49 -393q-76 -29 -186 -29q-41 0 -68 5t-56.5 20.5t-44 53.5 t-14.5 97q0 39 2 146.5t2 156.5v410q0 225 -18 465zM313 1653q0 80 57.5 135t133.5 55t130 -55t54 -135q0 -84 -57 -138.5t-131 -54.5q-78 0 -132.5 54.5t-54.5 138.5z" />
<glyph unicode="&#xd0;" horiz-adv-x="1411" d="M-20 698q0 76 34.5 106t124.5 30h41q0 317 -26 520q141 25 356 24q178 0 322.5 -34.5t263 -111.5t184.5 -216t66 -334q0 -307 -184.5 -504.5t-524.5 -197.5q-313 0 -487 129q20 160 28 516q-94 -2 -186 -13q-12 27 -12 86zM469 244q113 -57 211 -58q160 0 245 130t85 325 q0 264 -109.5 398.5t-314.5 134.5q-50 -1 -97 -7q8 -121 9 -286v-47h37q131 0 241 12q12 -27 12 -86q0 -76 -34.5 -105.5t-124.5 -29.5h-135q-6 -215 -25 -381z" />
<glyph unicode="&#xd1;" horiz-adv-x="1335" d="M88 1337q98 29 178 29q147 0 221 -90q150 -186 449 -713q-2 319 -2 320q0 281 -14 467q86 14 127 14q201 0 200 -119q0 -8 -8 -173t-8 -245v-350q0 -283 14 -469q-66 -14 -127 -14q-174 0 -235 96q-80 125 -183 307q-188 338 -280 486v-467q0 -260 43 -396 q-59 -27 -154 -26q-102 0 -145 29.5t-43 111.5q0 33 3 149.5t3 188.5v410q0 330 -39 454zM309 1559q0 70 83 137t179 67q49 0 140.5 -44t126.5 -44q47 0 137 82q27 -4 53.5 -27.5t26.5 -56.5q0 -72 -82 -138.5t-180 -66.5q-49 0 -139.5 44t-125.5 44q-45 0 -139 -81 q-80 29 -80 84z" />
<glyph unicode="&#xd2;" horiz-adv-x="1490" d="M66 678q0 322 183 511t494 189q313 0 497.5 -189.5t184.5 -510.5q0 -317 -185.5 -507.5t-496.5 -190.5q-309 0 -493 190t-184 508zM342 1796q0 80 137 146q41 -53 115 -108.5t133 -91.5t105.5 -80t46.5 -83q0 -55 -80 -113q-76 55 -202 120t-190.5 111t-64.5 99zM397 741 q0 -143 32 -263t113 -206t199 -86q166 0 257.5 126t91.5 329q0 135 -32 250t-113 197.5t-200 82.5q-160 0 -254 -120.5t-94 -309.5z" />
<glyph unicode="&#xd3;" horiz-adv-x="1490" d="M66 678q0 322 183 511t494 189q313 0 497.5 -189.5t184.5 -510.5q0 -317 -185.5 -507.5t-496.5 -190.5q-309 0 -493 190t-184 508zM397 741q0 -143 32 -263t113 -206t199 -86q166 0 257.5 126t91.5 329q0 135 -32 250t-113 197.5t-200 82.5q-160 0 -254 -120.5 t-94 -309.5zM578 1571q0 39 53 79t122.5 70.5t152.5 85t126 111.5q109 -59 109 -141q0 -60 -49 -93q-49 -31 -227.5 -105.5t-215.5 -111.5q-72 57 -71 105z" />
<glyph unicode="&#xd4;" horiz-adv-x="1490" d="M66 678q0 322 183 511t494 189q313 0 497.5 -189.5t184.5 -510.5q0 -317 -185.5 -507.5t-496.5 -190.5q-309 0 -493 190t-184 508zM375 1552q167 183 370 316q336 -184 336 -293q0 -35 -35.5 -70t-91.5 -47q-110 128 -213 182q-203 -166 -252 -165q-35 0 -58 15t-56 62z M397 741q0 -143 32 -263t113 -206t199 -86q166 0 257.5 126t91.5 329q0 135 -32 250t-113 197.5t-200 82.5q-160 0 -254 -120.5t-94 -309.5z" />
<glyph unicode="&#xd5;" horiz-adv-x="1490" d="M66 678q0 322 183 511t494 189q313 0 497.5 -189.5t184.5 -510.5q0 -317 -185.5 -507.5t-496.5 -190.5q-309 0 -493 190t-184 508zM375 1559q0 70 83 137t179 67q49 0 140 -44t126 -44q47 0 137 82q27 -4 53.5 -27.5t26.5 -56.5q0 -72 -82 -138.5t-180 -66.5 q-49 0 -139 44t-125 44q-45 0 -139 -81q-80 29 -80 84zM397 741q0 -143 32 -263t113 -206t199 -86q166 0 257.5 126t91.5 329q0 135 -32 250t-113 197.5t-200 82.5q-160 0 -254 -120.5t-94 -309.5z" />
<glyph unicode="&#xd6;" horiz-adv-x="1490" d="M66 678q0 322 183 511t494 189q313 0 497.5 -189.5t184.5 -510.5q0 -317 -185.5 -507.5t-496.5 -190.5q-309 0 -493 190t-184 508zM313 1653q0 80 57.5 135t133.5 55t130 -55t54 -135q0 -84 -57 -138.5t-131 -54.5q-78 0 -132.5 54.5t-54.5 138.5zM397 741 q0 -143 32 -263t113 -206t199 -86q166 0 257.5 126t91.5 329q0 135 -32 250t-113 197.5t-200 82.5q-160 0 -254 -120.5t-94 -309.5zM782 1653q0 80 57.5 135t133.5 55t130 -55t54 -135q0 -84 -57 -138.5t-131 -54.5q-78 0 -132.5 54.5t-54.5 138.5z" />
<glyph unicode="&#xd7;" d="M113 848q72 111 147 110q39 0 70 -32q14 -14 95 -107.5t165 -183.5q270 295 323 360q41 -23 75 -64.5t34 -84.5q0 -37 -31 -68q-37 -39 -137 -127t-147 -135q31 -31 153.5 -140.5t200.5 -172.5q-68 -109 -150 -109q-37 0 -67 31q-41 39 -127 135t-129 139 q-195 -193 -326 -354q-39 27 -56.5 41t-35.5 44t-18 65q0 39 28 67q14 14 104.5 91t184.5 165q-205 199 -356 330z" />
<glyph unicode="&#xd8;" horiz-adv-x="1490" d="M66 678q0 322 183 511t494 189q164 0 297 -57l47 86q20 37 58 117q94 -10 94 -64q0 -23 -45 -102l-49 -90q133 -90 206.5 -242t73.5 -348q0 -317 -185.5 -507.5t-496.5 -190.5q-158 0 -280 49l-47 -84q-45 -82 -58 -117q-94 10 -94 63q0 20 51 113l43 78 q-293 184 -292 596zM397 741q0 -258 97 -411l430 778q-79 63 -179 63q-160 0 -254 -120.5t-94 -309.5zM578 238q70 -51 163 -52q166 0 257.5 126t91.5 329q0 227 -86 373z" />
<glyph unicode="&#xd9;" horiz-adv-x="1394" d="M96 1335q76 29 166 29q111 0 156 -45t45 -168q0 -45 -13.5 -316.5t-13.5 -428.5q0 -104 58.5 -158.5t134.5 -54.5q78 0 167 46t144 107q0 14 1 66.5t1 178.5v322q0 209 -18 435q78 16 159 16q90 0 139.5 -29.5t49.5 -81.5l-7 -160q-7 -161 -8 -343v-220q0 -219 10.5 -317 t39.5 -190q-76 -29 -187 -29q-100 0 -137 35t-47 129q-86 -84 -197.5 -131t-210.5 -47q-193 0 -304 91t-111 322q0 121 9 328t9 305q0 193 -35 309zM297 1796q0 80 137 146q41 -53 115 -108.5t133 -91.5t105.5 -80t46.5 -83q0 -55 -80 -113q-76 55 -202 120t-190.5 111 t-64.5 99z" />
<glyph unicode="&#xda;" horiz-adv-x="1394" d="M96 1335q76 29 166 29q111 0 156 -45t45 -168q0 -45 -13.5 -316.5t-13.5 -428.5q0 -104 58.5 -158.5t134.5 -54.5q78 0 167 46t144 107q0 14 1 66.5t1 178.5v322q0 209 -18 435q78 16 159 16q90 0 139.5 -29.5t49.5 -81.5l-7 -160q-7 -161 -8 -343v-220q0 -219 10.5 -317 t39.5 -190q-76 -29 -187 -29q-100 0 -137 35t-47 129q-86 -84 -197.5 -131t-210.5 -47q-193 0 -304 91t-111 322q0 121 9 328t9 305q0 193 -35 309zM532 1571q0 39 53.5 79t123 70.5t152.5 85t126 111.5q109 -59 109 -141q0 -60 -49 -93q-49 -31 -227.5 -105.5 t-215.5 -111.5q-72 57 -72 105z" />
<glyph unicode="&#xdb;" horiz-adv-x="1394" d="M96 1335q76 29 166 29q111 0 156 -45t45 -168q0 -45 -13.5 -316.5t-13.5 -428.5q0 -104 58.5 -158.5t134.5 -54.5q78 0 167 46t144 107q0 14 1 66.5t1 178.5v322q0 209 -18 435q78 16 159 16q90 0 139.5 -29.5t49.5 -81.5l-7 -160q-7 -161 -8 -343v-220q0 -219 10.5 -317 t39.5 -190q-76 -29 -187 -29q-100 0 -137 35t-47 129q-86 -84 -197.5 -131t-210.5 -47q-193 0 -304 91t-111 322q0 121 9 328t9 305q0 193 -35 309zM330 1552q167 183 370 316q336 -184 336 -293q0 -35 -35.5 -70t-91.5 -47q-110 128 -213 182q-203 -166 -252 -165 q-35 0 -58.5 15t-55.5 62z" />
<glyph unicode="&#xdc;" horiz-adv-x="1394" d="M96 1335q76 29 166 29q111 0 156 -45t45 -168q0 -45 -13.5 -316.5t-13.5 -428.5q0 -104 58.5 -158.5t134.5 -54.5q78 0 167 46t144 107q0 14 1 66.5t1 178.5v322q0 209 -18 435q78 16 159 16q90 0 139.5 -29.5t49.5 -81.5l-7 -160q-7 -161 -8 -343v-220q0 -219 10.5 -317 t39.5 -190q-76 -29 -187 -29q-100 0 -137 35t-47 129q-86 -84 -197.5 -131t-210.5 -47q-193 0 -304 91t-111 322q0 121 9 328t9 305q0 193 -35 309zM268 1653q0 80 57.5 135t133.5 55t130 -55t54 -135q0 -84 -57 -138.5t-131 -54.5q-78 0 -132.5 54.5t-54.5 138.5zM737 1653 q0 80 57.5 135t133.5 55t130 -55t54 -135q0 -84 -57 -138.5t-131 -54.5q-78 0 -132.5 54.5t-54.5 138.5z" />
<glyph unicode="&#xdd;" horiz-adv-x="1157" d="M-14 1229q104 141 218.5 141t188.5 -129q63 -114 217 -440q72 111 157 310.5t87 266.5q295 -31 295 -153q0 -18 -13.5 -50t-43 -79t-56 -87t-75 -105.5t-73 -98.5t-77.5 -102.5t-66 -86.5v-200q0 -229 50 -393q-76 -29 -187 -29q-41 0 -67.5 5t-56 20.5t-44 53.5 t-14.5 97q0 39 2 146.5t2 156.5v129q-299 563 -444 627zM444 1571q0 39 53.5 79t123 70.5t152.5 85t126 111.5q109 -59 109 -141q-1 -60 -50 -93q-49 -31 -227 -105.5t-215 -111.5q-72 57 -72 105z" />
<glyph unicode="&#xde;" horiz-adv-x="1112" d="M88 1348q78 16 162 16q78 0 132 -27.5t54 -85.5q0 -10 -4 -88q633 -4 633 -442q0 -219 -128 -346t-308 -127q-104 0 -205 59q6 -152 47 -284q-76 -29 -186 -29q-41 0 -68 5t-56.5 20.5t-44 53.5t-14.5 97q0 39 2 146.5t2 156.5v410q0 225 -18 465zM422 479 q66 -30 123 -30q88 0 137 69.5t49 188.5q0 141 -61.5 195t-190.5 54l-55 -6q-2 -41 -2 -123v-348z" />
<glyph unicode="&#xdf;" horiz-adv-x="1269" d="M86 16q41 137 41 404v530q0 139 84 239.5t202.5 144.5t254.5 44q160 0 271.5 -63.5t111.5 -171.5q0 -66 -22.5 -115t-54.5 -76.5t-63.5 -49t-54 -45t-22.5 -50.5q0 -49 38.5 -92t94 -79t111 -77t94 -107.5t38.5 -148.5q0 -121 -108.5 -222t-259.5 -101q-129 0 -217 51 t-88 121q0 109 143 157q47 -131 133 -131q35 0 62.5 29t27.5 67q0 57 -53 111.5t-116.5 91.5t-117 99.5t-53.5 136.5q0 43 18.5 78.5t45 61.5t53.5 51.5t45 59t18 74.5q0 70 -35.5 106t-89.5 36q-74 0 -134 -64.5t-60 -175.5v-559q0 -74 1 -157t1 -99q0 -68 -58.5 -99.5 t-142.5 -31.5t-139 22z" />
<glyph unicode="&#xe0;" horiz-adv-x="1011" d="M59 268q0 115 46.5 168t125.5 80q156 49 369 62q0 125 -27.5 175t-115.5 50q-51 0 -109.5 -43t-85.5 -117q-180 33 -180 154q0 82 117.5 139t283.5 57q215 0 317.5 -82t102.5 -272q0 -16 -2 -120.5t-2 -156.5q0 -236 39 -352q-90 -25 -160 -24q-147 0 -172 118 q-49 -57 -126 -90.5t-154 -33.5q-113 0 -190 72.5t-77 215.5zM94 1401q0 79 137 145q41 -53 115 -108.5t133.5 -91t105.5 -79.5t46 -83q0 -55 -80 -113q-76 55 -202 119.5t-190.5 111t-64.5 99.5zM365 272q0 -51 24.5 -76.5t61.5 -25.5q86 0 143 51q-2 18 -2 62q0 73 6 147 q-61 -10 -94 -18.5t-71 -25.5t-53 -45t-15 -69z" />
<glyph unicode="&#xe1;" horiz-adv-x="1011" d="M59 268q0 115 46.5 168t125.5 80q156 49 369 62q0 125 -27.5 175t-115.5 50q-51 0 -109.5 -43t-85.5 -117q-180 33 -180 154q0 82 117.5 139t283.5 57q215 0 317.5 -82t102.5 -272q0 -16 -2 -120.5t-2 -156.5q0 -236 39 -352q-90 -25 -160 -24q-147 0 -172 118 q-49 -57 -126 -90.5t-154 -33.5q-113 0 -190 72.5t-77 215.5zM330 1176q0 39 53 78.5t122.5 70.5t152.5 85t126 112q109 -59 109 -142q0 -59 -49 -92q-49 -31 -227.5 -105.5t-215.5 -111.5q-72 57 -71 105zM365 272q0 -51 24.5 -76.5t61.5 -25.5q86 0 143 51q-2 18 -2 62 q0 73 6 147q-61 -10 -94 -18.5t-71 -25.5t-53 -45t-15 -69z" />
<glyph unicode="&#xe2;" horiz-adv-x="1011" d="M59 268q0 115 46.5 168t125.5 80q156 49 369 62q0 125 -27.5 175t-115.5 50q-51 0 -109.5 -43t-85.5 -117q-180 33 -180 154q0 82 117.5 139t283.5 57q215 0 317.5 -82t102.5 -272q0 -16 -2 -120.5t-2 -156.5q0 -236 39 -352q-90 -25 -160 -24q-147 0 -172 118 q-49 -57 -126 -90.5t-154 -33.5q-113 0 -190 72.5t-77 215.5zM127 1157q168 183 371 316q336 -184 336 -293q0 -35 -36 -70t-91 -47q-110 128 -213 182q-203 -166 -252 -166q-35 0 -58.5 15.5t-56.5 62.5zM365 272q0 -51 24.5 -76.5t61.5 -25.5q86 0 143 51q-2 18 -2 62 q0 73 6 147q-61 -10 -94 -18.5t-71 -25.5t-53 -45t-15 -69z" />
<glyph unicode="&#xe3;" horiz-adv-x="1011" d="M59 268q0 115 46.5 168t125.5 80q156 49 369 62q0 125 -27.5 175t-115.5 50q-51 0 -109.5 -43t-85.5 -117q-180 33 -180 154q0 82 117.5 139t283.5 57q215 0 317.5 -82t102.5 -272q0 -16 -2 -120.5t-2 -156.5q0 -236 39 -352q-90 -25 -160 -24q-147 0 -172 118 q-49 -57 -126 -90.5t-154 -33.5q-113 0 -190 72.5t-77 215.5zM127 1184q0 70 83 137.5t179 67.5q49 0 140.5 -44.5t125.5 -44.5q47 0 138 82q27 -4 53 -27.5t26 -56.5q0 -72 -81.5 -138t-180.5 -66q-49 0 -139 44t-125 44q-45 0 -139 -82q-80 29 -80 84zM365 272 q0 -51 24.5 -76.5t61.5 -25.5q86 0 143 51q-2 18 -2 62q0 73 6 147q-61 -10 -94 -18.5t-71 -25.5t-53 -45t-15 -69z" />
<glyph unicode="&#xe4;" horiz-adv-x="1011" d="M59 268q0 115 46.5 168t125.5 80q156 49 369 62q0 125 -27.5 175t-115.5 50q-51 0 -109.5 -43t-85.5 -117q-180 33 -180 154q0 82 117.5 139t283.5 57q215 0 317.5 -82t102.5 -272q0 -16 -2 -120.5t-2 -156.5q0 -236 39 -352q-90 -25 -160 -24q-147 0 -172 118 q-49 -57 -126 -90.5t-154 -33.5q-113 0 -190 72.5t-77 215.5zM66 1257q0 80 57 135.5t133 55.5t130 -55.5t54 -135.5q0 -82 -57 -137t-131 -55q-78 0 -132 54.5t-54 137.5zM365 272q0 -51 24.5 -76.5t61.5 -25.5q86 0 143 51q-2 18 -2 62q0 73 6 147q-61 -10 -94 -18.5 t-71 -25.5t-53 -45t-15 -69zM535 1257q0 80 57 135.5t133 55.5t130 -55.5t54 -135.5q0 -82 -57 -137t-131 -55q-78 0 -132 54.5t-54 137.5z" />
<glyph unicode="&#xe5;" horiz-adv-x="1011" d="M59 268q0 115 46.5 168t125.5 80q156 49 369 62q0 125 -27.5 175t-115.5 50q-51 0 -109.5 -43t-85.5 -117q-180 33 -180 154q0 82 117.5 139t283.5 57q215 0 317.5 -82t102.5 -272q0 -16 -2 -120.5t-2 -156.5q0 -236 39 -352q-90 -25 -160 -24q-147 0 -172 118 q-49 -57 -126 -90.5t-154 -33.5q-113 0 -190 72.5t-77 215.5zM260 1343q0 109 66.5 174.5t171.5 65.5q106 0 170.5 -65.5t64.5 -174.5q0 -106 -64.5 -171.5t-170.5 -65.5q-104 0 -171 65.5t-67 171.5zM365 272q0 -51 24.5 -76.5t61.5 -25.5q86 0 143 51q-2 18 -2 62 q0 73 6 147q-61 -10 -94 -18.5t-71 -25.5t-53 -45t-15 -69zM385 1354q0 -63 30.5 -104.5t82.5 -41.5q53 0 81.5 34t28.5 91q0 63 -30.5 105.5t-79.5 42.5q-51 0 -82 -35t-31 -92z" />
<glyph unicode="&#xe6;" horiz-adv-x="1540" d="M59 268q0 115 46.5 168t125.5 80q156 49 369 62q-2 127 -28.5 176t-114.5 49q-51 0 -109.5 -43t-85.5 -117q-180 33 -180 154q0 82 117.5 139t283.5 57q229 0 322 -106q123 106 303 106q152 0 262.5 -75.5t110.5 -225.5q0 -303 -434 -303q-39 0 -142 4q0 -117 58.5 -170 t144.5 -53q152 0 235 98q47 -23 77 -60.5t30 -76.5q0 -61 -72.5 -98t-141.5 -45t-132 -8q-281 0 -418 178q-174 -178 -360 -178q-113 0 -190 72.5t-77 215.5zM365 272q0 -51 24.5 -76.5t61.5 -25.5q90 0 184 74q-35 82 -41 184q-80 -14 -121 -25.5t-74.5 -44t-33.5 -86.5z M905 537q57 4 81 7t68 13t63.5 27.5t35.5 49.5t16 79q0 33 -22 59.5t-55 26.5q-74 0 -129.5 -66.5t-57.5 -195.5z" />
<glyph unicode="&#xe7;" horiz-adv-x="976" d="M59 465q0 135 46.5 239.5t120 166t159.5 92t174 30.5q129 0 247 -53t118 -147q0 -125 -201 -150q-18 70 -65.5 111t-104.5 41q-76 0 -131 -77t-55 -226q-1 -318 208 -318q63 0 120 32t77 87q92 -33 121 -63.5t29 -73.5q0 -84 -98.5 -130t-256.5 -46h-14q-8 -33 -8 -41 q0 -23 28.5 -43.5t62.5 -39t62.5 -58.5t28.5 -93q0 -80 -95 -150.5t-233 -70.5q-72 0 -107.5 26.5t-35.5 65.5q0 55 51 111q27 -27 70 -27q61 0 61 78q0 41 -46 78t-46 73q0 43 31 117q-150 45 -234 164t-84 295z" />
<glyph unicode="&#xe8;" horiz-adv-x="1007" d="M59 481q0 168 79 288t192.5 172t244.5 52q152 0 262.5 -75.5t110.5 -225.5q0 -303 -434 -303q-39 0 -141 4q0 -117 58 -170t144 -53q152 0 236 98q47 -23 77 -60.5t30 -76.5q0 -61 -73 -98t-141.5 -45t-132.5 -8q-225 0 -368.5 123.5t-143.5 377.5zM100 1401 q1 79 138 145q41 -53 114.5 -108.5t133 -91t105.5 -79.5t46 -83q0 -55 -80 -113q-76 55 -202 119.5t-190.5 111t-64.5 99.5zM373 537q57 4 80.5 7t67.5 13t63.5 27.5t36 49.5t16.5 79q0 33 -22.5 59.5t-55.5 26.5q-74 0 -129 -66.5t-57 -195.5z" />
<glyph unicode="&#xe9;" horiz-adv-x="1007" d="M59 481q0 168 79 288t192.5 172t244.5 52q152 0 262.5 -75.5t110.5 -225.5q0 -303 -434 -303q-39 0 -141 4q0 -117 58 -170t144 -53q152 0 236 98q47 -23 77 -60.5t30 -76.5q0 -61 -73 -98t-141.5 -45t-132.5 -8q-225 0 -368.5 123.5t-143.5 377.5zM336 1176 q0 39 53 78.5t123 70.5t153 85t126 112q109 -59 108 -142q0 -59 -49 -92q-49 -31 -227.5 -105.5t-214.5 -111.5q-72 57 -72 105zM373 537q57 4 80.5 7t67.5 13t63.5 27.5t36 49.5t16.5 79q0 33 -22.5 59.5t-55.5 26.5q-74 0 -129 -66.5t-57 -195.5z" />
<glyph unicode="&#xea;" horiz-adv-x="1007" d="M59 481q0 168 79 288t192.5 172t244.5 52q152 0 262.5 -75.5t110.5 -225.5q0 -303 -434 -303q-39 0 -141 4q0 -117 58 -170t144 -53q152 0 236 98q47 -23 77 -60.5t30 -76.5q0 -61 -73 -98t-141.5 -45t-132.5 -8q-225 0 -368.5 123.5t-143.5 377.5zM133 1157 q168 183 371 316q336 -184 336 -293q0 -35 -36 -70t-91 -47q-110 128 -213 182q-203 -166 -252 -166q-35 0 -58.5 15.5t-56.5 62.5zM373 537q57 4 80.5 7t67.5 13t63.5 27.5t36 49.5t16.5 79q0 33 -22.5 59.5t-55.5 26.5q-74 0 -129 -66.5t-57 -195.5z" />
<glyph unicode="&#xeb;" horiz-adv-x="1007" d="M59 481q0 168 79 288t192.5 172t244.5 52q152 0 262.5 -75.5t110.5 -225.5q0 -303 -434 -303q-39 0 -141 4q0 -117 58 -170t144 -53q152 0 236 98q47 -23 77 -60.5t30 -76.5q0 -61 -73 -98t-141.5 -45t-132.5 -8q-225 0 -368.5 123.5t-143.5 377.5zM72 1257 q0 80 57 135.5t133 55.5t130 -55.5t54 -135.5q0 -82 -57 -137t-131 -55q-78 0 -132 54.5t-54 137.5zM373 537q57 4 80.5 7t67.5 13t63.5 27.5t36 49.5t16.5 79q0 33 -22.5 59.5t-55.5 26.5q-74 0 -129 -66.5t-57 -195.5zM541 1257q0 80 57 135.5t133 55.5t130 -55.5 t54 -135.5q0 -82 -57 -137t-131 -55q-78 0 -132 54.5t-54 137.5z" />
<glyph unicode="&#xec;" horiz-adv-x="526" d="M-129 1401q0 79 137 145q41 -53 115 -108.5t133 -91t105.5 -79.5t46.5 -83q0 -55 -80 -113q-76 55 -202 119.5t-190.5 111t-64.5 99.5zM100 952q78 27 166 27q78 0 121 -26.5t43 -104.5q0 -12 -7 -180t-7 -252q0 -291 35 -396q-86 -27 -170 -26q-96 0 -134 33.5t-38 99.5 q0 33 3 153.5t3 192.5q0 293 -15 479z" />
<glyph unicode="&#xed;" horiz-adv-x="526" d="M100 952q78 27 166 27q78 0 121 -26.5t43 -104.5q0 -12 -7 -180t-7 -252q0 -291 35 -396q-86 -27 -170 -26q-96 0 -134 33.5t-38 99.5q0 33 3 153.5t3 192.5q0 293 -15 479zM106 1176q0 39 53.5 78.5t123 70.5t152.5 85t126 112q109 -59 109 -142q0 -59 -49 -92 q-49 -31 -227.5 -105.5t-215.5 -111.5q-72 57 -72 105z" />
<glyph unicode="&#xee;" horiz-adv-x="526" d="M-96 1157q167 183 370 316q336 -184 336 -293q0 -35 -35.5 -70t-91.5 -47q-110 128 -213 182q-203 -166 -252 -166q-35 0 -58 15.5t-56 62.5zM100 952q78 27 166 27q78 0 121 -26.5t43 -104.5q0 -12 -7 -180t-7 -252q0 -291 35 -396q-86 -27 -170 -26q-96 0 -134 33.5 t-38 99.5q0 33 3 153.5t3 192.5q0 293 -15 479z" />
<glyph unicode="&#xef;" horiz-adv-x="526" d="M-158 1257q0 80 57.5 135.5t133.5 55.5t130 -55.5t54 -135.5q0 -82 -57 -137t-131 -55q-78 0 -132.5 54.5t-54.5 137.5zM100 952q78 27 166 27q78 0 121 -26.5t43 -104.5q0 -12 -7 -180t-7 -252q0 -291 35 -396q-86 -27 -170 -26q-96 0 -134 33.5t-38 99.5q0 33 3 153.5 t3 192.5q0 293 -15 479zM311 1257q0 80 57.5 135.5t133.5 55.5t130 -55.5t54 -135.5q0 -82 -57 -137t-131 -55q-78 0 -132.5 54.5t-54.5 137.5z" />
<glyph unicode="&#xf0;" horiz-adv-x="1120" d="M59 475q0 225 130 366.5t298 141.5q141 0 209 -65q-59 145 -139 227l-168 -125q-78 53 -78 108q0 37 47 70q16 10 64 41q-108 51 -266 51q-8 33 -9 64q0 41 27 58.5t94 17.5q166 0 322 -76l188 149q66 -61 66 -114q0 -35 -51 -74l-66 -49q154 -121 241 -311.5t87 -403.5 q0 -246 -125 -408.5t-375 -162.5q-223 0 -359.5 135t-136.5 360zM362 504q0 -141 51.5 -234.5t139.5 -93.5q90 0 140 73.5t50 196.5q0 156 -51 253.5t-139 97.5q-92 0 -141.5 -77t-49.5 -216z" />
<glyph unicode="&#xf1;" horiz-adv-x="1140" d="M80 952q84 27 160 27q150 0 170 -121q133 133 303 133q139 0 229 -80t90 -227q0 -4 -3 -147.5t-3 -217.5q0 -176 35 -299q-88 -27 -178 -26q-164 0 -164 125q0 74 6 271.5t6 238.5q0 84 -33.5 126t-87.5 42q-86 0 -190 -101q4 -262 4 -379q0 -180 10 -315q-68 -6 -121 -6 q-205 0 -204 98q0 8 5 143.5t5 280.5q0 334 -39 434zM199 1184q0 70 83 137.5t179 67.5q49 0 140 -44.5t126 -44.5q47 0 137 82q27 -4 53.5 -27.5t26.5 -56.5q0 -72 -82 -138t-180 -66q-49 0 -139 44t-125 44q-45 0 -139 -82q-80 29 -80 84z" />
<glyph unicode="&#xf2;" horiz-adv-x="1112" d="M59 475q0 236 136.5 377t359.5 141t360.5 -141t137.5 -377q0 -225 -137.5 -360t-360.5 -135t-359.5 135t-136.5 360zM152 1401q0 79 137 145q41 -53 114.5 -108.5t133 -91t105.5 -79.5t46 -83q0 -55 -80 -113q-76 55 -201.5 119.5t-190 111t-64.5 99.5zM367 492 q0 -135 50 -224.5t138 -89.5q92 0 142.5 70.5t50.5 185.5q0 156 -51.5 259.5t-141.5 103.5q-88 0 -138 -84t-50 -221z" />
<glyph unicode="&#xf3;" horiz-adv-x="1112" d="M59 475q0 236 136.5 377t359.5 141t360.5 -141t137.5 -377q0 -225 -137.5 -360t-360.5 -135t-359.5 135t-136.5 360zM367 492q0 -135 50 -224.5t138 -89.5q92 0 142.5 70.5t50.5 185.5q0 156 -51.5 259.5t-141.5 103.5q-88 0 -138 -84t-50 -221zM387 1176q0 39 53.5 78.5 t123 70.5t152.5 85t126 112q109 -59 108 -142q0 -59 -49 -92q-49 -31 -227 -105.5t-215 -111.5q-72 57 -72 105z" />
<glyph unicode="&#xf4;" horiz-adv-x="1112" d="M59 475q0 236 136.5 377t359.5 141t360.5 -141t137.5 -377q0 -225 -137.5 -360t-360.5 -135t-359.5 135t-136.5 360zM184 1157q168 183 371 316q336 -184 336 -293q0 -35 -36 -70t-91 -47q-110 128 -213 182q-203 -166 -252 -166q-35 0 -58.5 15.5t-56.5 62.5zM367 492 q0 -135 50 -224.5t138 -89.5q92 0 142.5 70.5t50.5 185.5q0 156 -51.5 259.5t-141.5 103.5q-88 0 -138 -84t-50 -221z" />
<glyph unicode="&#xf5;" horiz-adv-x="1112" d="M59 475q0 236 136.5 377t359.5 141t360.5 -141t137.5 -377q0 -225 -137.5 -360t-360.5 -135t-359.5 135t-136.5 360zM184 1184q0 70 83 137.5t179 67.5q49 0 140.5 -44.5t126.5 -44.5q47 0 137 82q27 -4 53.5 -27.5t26.5 -56.5q0 -72 -82 -138t-180 -66q-49 0 -139.5 44 t-125.5 44q-45 0 -139 -82q-80 29 -80 84zM367 492q0 -135 50 -224.5t138 -89.5q92 0 142.5 70.5t50.5 185.5q0 156 -51.5 259.5t-141.5 103.5q-88 0 -138 -84t-50 -221z" />
<glyph unicode="&#xf6;" horiz-adv-x="1112" d="M59 475q0 236 136.5 377t359.5 141t360.5 -141t137.5 -377q0 -225 -137.5 -360t-360.5 -135t-359.5 135t-136.5 360zM123 1257q0 80 57.5 135.5t133 55.5t130 -55.5t54.5 -135.5q0 -82 -57.5 -137t-131.5 -55q-78 0 -132 54.5t-54 137.5zM367 492q0 -135 50 -224.5 t138 -89.5q92 0 142.5 70.5t50.5 185.5q0 156 -51.5 259.5t-141.5 103.5q-88 0 -138 -84t-50 -221zM592 1257q0 80 57.5 135.5t133 55.5t130 -55.5t54.5 -135.5q0 -82 -57.5 -137t-131.5 -55q-78 0 -132 54.5t-54 137.5z" />
<glyph unicode="&#xf7;" d="M129 496q0 47 25.5 84.5t78.5 37.5q8 0 138.5 -10t224.5 -10q295 0 436 20q12 -25 12 -86q0 -51 -28.5 -86.5t-75.5 -35.5q-35 0 -167 11t-193 11q-231 0 -443 -22q-8 43 -8 86zM424 147q0 66 45 112t109 46q61 0 105 -46t44 -112q0 -72 -43 -115.5t-106 -43.5 q-66 0 -110 45t-44 114zM424 895q0 66 45 112t109 46q61 0 105 -46t44 -112q0 -72 -43 -116t-106 -44q-66 0 -110 44t-44 116z" />
<glyph unicode="&#xf8;" horiz-adv-x="1112" d="M59 475q0 236 136.5 377t359.5 141q96 0 188 -32l41 75q20 37 58 117q94 -10 94 -63q0 -23 -45 -103l-43 -78q205 -141 205 -434q0 -225 -137.5 -360t-360.5 -135q-109 0 -203 34l-39 -71q-45 -82 -57 -117q-94 10 -94 63q0 20 51 113l37 66q-190 135 -191 407zM367 492 q0 -94 24 -168l244 444q-35 29 -80 29q-88 0 -138 -84t-50 -221zM463 211q39 -33 92 -33q92 0 142.5 70.5t50.5 185.5q0 131 -37 225z" />
<glyph unicode="&#xf9;" horiz-adv-x="1132" d="M80 952q80 27 166 27q176 0 176 -125q0 -68 -6 -252t-6 -221q0 -98 31.5 -151.5t78.5 -53.5q104 0 195 96q-2 80 -2 248q0 238 -15 432q82 27 158 27q82 0 127 -24.5t45 -102.5q0 -20 -5 -124.5t-7 -164.5v-147q0 -261 37 -396q-100 -27 -172 -26q-66 0 -112 29.5 t-50 87.5q-150 -131 -324 -131q-289 0 -289 288q0 6 3.5 149.5t3.5 215.5q0 213 -33 319zM162 1401q0 79 137 145q41 -53 114.5 -108.5t133 -91t105.5 -79.5t46 -83q0 -55 -80 -113q-76 55 -201.5 119.5t-190 111t-64.5 99.5z" />
<glyph unicode="&#xfa;" horiz-adv-x="1132" d="M80 952q80 27 166 27q176 0 176 -125q0 -68 -6 -252t-6 -221q0 -98 31.5 -151.5t78.5 -53.5q104 0 195 96q-2 80 -2 248q0 238 -15 432q82 27 158 27q82 0 127 -24.5t45 -102.5q0 -20 -5 -124.5t-7 -164.5v-147q0 -261 37 -396q-100 -27 -172 -26q-66 0 -112 29.5 t-50 87.5q-150 -131 -324 -131q-289 0 -289 288q0 6 3.5 149.5t3.5 215.5q0 213 -33 319zM397 1176q0 39 53.5 78.5t123 70.5t152.5 85t126 112q109 -59 109 -142q-1 -59 -50 -92q-49 -31 -227 -105.5t-215 -111.5q-72 57 -72 105z" />
<glyph unicode="&#xfb;" horiz-adv-x="1132" d="M80 952q80 27 166 27q176 0 176 -125q0 -68 -6 -252t-6 -221q0 -98 31.5 -151.5t78.5 -53.5q104 0 195 96q-2 80 -2 248q0 238 -15 432q82 27 158 27q82 0 127 -24.5t45 -102.5q0 -20 -5 -124.5t-7 -164.5v-147q0 -261 37 -396q-100 -27 -172 -26q-66 0 -112 29.5 t-50 87.5q-150 -131 -324 -131q-289 0 -289 288q0 6 3.5 149.5t3.5 215.5q0 213 -33 319zM195 1157q167 183 370 316q336 -184 336 -293q0 -35 -36 -70t-91 -47q-110 128 -213 182q-203 -166 -252 -166q-35 0 -58.5 15.5t-55.5 62.5z" />
<glyph unicode="&#xfc;" horiz-adv-x="1132" d="M80 952q80 27 166 27q176 0 176 -125q0 -68 -6 -252t-6 -221q0 -98 31.5 -151.5t78.5 -53.5q104 0 195 96q-2 80 -2 248q0 238 -15 432q82 27 158 27q82 0 127 -24.5t45 -102.5q0 -20 -5 -124.5t-7 -164.5v-147q0 -261 37 -396q-100 -27 -172 -26q-66 0 -112 29.5 t-50 87.5q-150 -131 -324 -131q-289 0 -289 288q0 6 3.5 149.5t3.5 215.5q0 213 -33 319zM133 1257q0 80 57.5 135.5t133 55.5t130 -55.5t54.5 -135.5q0 -82 -57.5 -137t-131.5 -55q-78 0 -132 54.5t-54 137.5zM602 1257q0 80 57.5 135.5t133 55.5t130 -55.5t54.5 -135.5 q0 -82 -57.5 -137t-131.5 -55q-78 0 -132 54.5t-54 137.5z" />
<glyph unicode="&#xfd;" horiz-adv-x="1038" d="M0 879q133 104 229 104q47 0 75 -20.5t48 -65.5q33 -72 98.5 -295t102.5 -391q55 168 101 368.5t46 288.5q0 49 -6 95q70 30 150 30q154 0 153 -102q0 -96 -72.5 -326.5t-172.5 -443.5q-143 -301 -310 -541q-61 -92 -143 -92q-104 0 -201 125q172 129 320 362 q-276 766 -418 904zM375 1176q0 39 53 78.5t123 70.5t152.5 85t125.5 112q109 -59 109 -142q0 -59 -49 -92q-49 -31 -227.5 -105.5t-215.5 -111.5q-72 57 -71 105z" />
<glyph unicode="&#xfe;" horiz-adv-x="1091" d="M80 1495q78 27 166 27q78 0 121 -27t43 -104q0 -12 -7.5 -180.5t-7.5 -252.5v-104q90 139 262 139q176 0 275.5 -130t99.5 -333q0 -135 -40 -255.5t-136 -207.5t-233 -87q-135 0 -232 90q0 -12 1 -110.5t2 -136.5t5 -113t12.5 -125t20.5 -87q-70 -16 -156 -16 q-111 0 -149.5 26.5t-38.5 90.5q0 201 3 497.5t3 413.5v506q0 293 -14 479zM395 221q68 -47 164 -47q82 0 122 97.5t40 228.5q0 152 -39 224.5t-100 72.5q-103 -1 -187 -101v-475z" />
<glyph unicode="&#xff;" horiz-adv-x="1038" d="M0 879q133 104 229 104q47 0 75 -20.5t48 -65.5q33 -72 98.5 -295t102.5 -391q55 168 101 368.5t46 288.5q0 49 -6 95q70 30 150 30q154 0 153 -102q0 -96 -72.5 -326.5t-172.5 -443.5q-143 -301 -310 -541q-61 -92 -143 -92q-104 0 -201 125q172 129 320 362 q-276 766 -418 904zM100 1257q0 80 57.5 135.5t133.5 55.5t130 -55.5t54 -135.5q0 -82 -57 -137t-131 -55q-78 0 -132.5 54.5t-54.5 137.5zM569 1257q0 80 57.5 135.5t133.5 55.5t130 -55.5t54 -135.5q0 -82 -57 -137t-131 -55q-78 0 -132.5 54.5t-54.5 137.5z" />
<glyph unicode="&#x131;" horiz-adv-x="526" d="M100 952q78 27 166 27q78 0 121 -26.5t43 -104.5q0 -12 -7 -180t-7 -252q0 -291 35 -396q-86 -27 -170 -26q-96 0 -134 33.5t-38 99.5q0 33 3 153.5t3 192.5q0 293 -15 479z" />
<glyph unicode="&#x141;" horiz-adv-x="1077" d="M-59 475q0 35 30 60l172 131v217q0 225 -18 465q78 16 162 16q78 0 132 -26.5t54 -84.5q0 -18 -6 -137t-8 -203q92 76 200 172q90 -33 91 -92q0 -33 -31 -61l-260 -203v-297q0 -158 16 -223q90 -4 148 -4q334 0 430 47q25 -61 24 -141q0 -70 -54 -92.5t-216 -22.5 q-489 0 -567 4q-59 2 -80 28.5t-21 88.5q0 70 2 185.5t2 156.5v22q-18 -16 -57 -51t-57 -49q-88 37 -88 94z" />
<glyph unicode="&#x142;" horiz-adv-x="575" d="M-92 514q0 25 31 49l194 148v305q0 293 -14 479q78 27 166 27q78 0 121 -27t43 -104q0 -12 -7.5 -180.5t-7.5 -252.5v-12l174 150q66 -33 66 -78q0 -29 -31 -51l-209 -160v-410q0 -270 35 -377q-86 -27 -170 -26q-96 0 -134 33.5t-38 99.5q0 33 3 143.5t3 180.5v120 q-16 -14 -71.5 -62t-88.5 -75q-66 39 -65 80z" />
<glyph unicode="&#x152;" horiz-adv-x="1910" d="M66 678q0 322 183 511t494 189q92 0 185 -32q252 18 520 18q295 0 383 -33q39 -14 39 -82q0 -80 -25 -139q-135 43 -456 43q-41 0 -144 -4q8 -66 8 -315h162q131 0 242 12q12 -27 12 -86q0 -76 -35 -105.5t-125 -29.5h-256q0 -346 17 -416q90 -4 145 -4q334 0 430 47 q25 -61 25 -141q0 -70 -54.5 -92.5t-216.5 -22.5q-489 0 -567 4q-55 4 -74 23q-109 -43 -215 -43q-309 0 -493 190t-184 508zM397 741q0 -143 32 -263t113 -206t199 -86q113 0 193 58q0 31 1 103.5t1 111.5v409q0 123 -6 236q-82 68 -185 67q-160 0 -254 -120.5t-94 -309.5z " />
<glyph unicode="&#x153;" horiz-adv-x="1695" d="M59 475q0 236 136.5 377t359.5 141t350 -151q138 151 359 151q152 0 262 -75.5t110 -225.5q0 -303 -434 -303q-39 0 -141 4q0 -117 58.5 -170t144.5 -53q152 0 235 98q47 -23 77 -60.5t30 -76.5q0 -61 -73 -98t-141.5 -45t-131.5 -8q-233 0 -363 139q-125 -139 -342 -139 q-223 0 -359.5 135t-136.5 360zM367 492q0 -135 50 -224.5t138 -89.5q92 0 142.5 70.5t50.5 185.5q0 156 -51.5 259.5t-141.5 103.5q-88 0 -138 -84t-50 -221zM1061 537q57 4 80.5 7t67.5 13t63.5 27.5t36 49.5t16.5 79q0 33 -22.5 59.5t-55.5 26.5q-74 0 -129 -66.5 t-57 -195.5z" />
<glyph unicode="&#x160;" horiz-adv-x="1120" d="M59 172q0 63 35 102t119 84q51 -72 153.5 -120t198.5 -48q82 0 133.5 39t51.5 121q0 78 -67 125t-161 76t-188 68.5t-161 132t-67 237.5q0 104 45.5 182t122 122t167.5 64.5t198 20.5q168 0 289 -49t121 -137q0 -53 -50.5 -100t-140.5 -72q-33 59 -121 103t-170 44 q-68 0 -109.5 -35.5t-41.5 -109.5q0 -66 48 -111t118.5 -66.5t154.5 -54t155 -69.5t119 -115t48 -188q0 -121 -46 -209t-126 -136t-171 -70.5t-196 -22.5q-188 0 -324.5 53t-136.5 139zM260 1749q0 68 117 127q39 -49 95 -96t94 -70l38 -22q76 68 110 94t71.5 47.5 t64.5 21.5q49 0 121 -77q-168 -183 -371 -316q-111 59 -225.5 151.5t-114.5 139.5z" />
<glyph unicode="&#x161;" horiz-adv-x="892" d="M53 152q0 111 166 172q20 -74 77.5 -111t121.5 -37q137 0 137 98q0 47 -72.5 77t-158.5 49.5t-159 88t-73 183.5q0 145 124 233t280 88q72 0 144.5 -15t131.5 -59.5t59 -107.5q0 -55 -50 -95t-150 -52q-16 63 -57.5 98t-90.5 35q-47 0 -79.5 -24.5t-32.5 -72.5 q0 -49 48 -77.5t116.5 -46t137 -43t117 -85t48.5 -151.5q0 -156 -124 -236.5t-292 -80.5q-53 0 -104.5 5t-118 20t-106.5 53t-40 94zM145 1354q0 68 117 127q39 -49 95.5 -96.5t94.5 -69.5l37 -23q76 68 110 94.5t72 48t64 21.5q49 0 121 -78q-168 -182 -371 -315 q-111 59 -225.5 151.5t-114.5 139.5z" />
<glyph unicode="&#x178;" horiz-adv-x="1157" d="M-14 1229q104 141 218.5 141t188.5 -129q63 -114 217 -440q72 111 157 310.5t87 266.5q295 -31 295 -153q0 -18 -13.5 -50t-43 -79t-56 -87t-75 -105.5t-73 -98.5t-77.5 -102.5t-66 -86.5v-200q0 -229 50 -393q-76 -29 -187 -29q-41 0 -67.5 5t-56 20.5t-44 53.5 t-14.5 97q0 39 2 146.5t2 156.5v129q-299 563 -444 627zM180 1653q0 80 57.5 135t133 55t130 -55t54.5 -135q0 -84 -57 -138.5t-131 -54.5q-78 0 -132.5 54.5t-54.5 138.5zM649 1653q0 80 57.5 135t133 55t130 -55t54.5 -135q0 -84 -57 -138.5t-131 -54.5q-78 0 -132.5 54.5 t-54.5 138.5z" />
<glyph unicode="&#x17d;" horiz-adv-x="1161" d="M35 106q0 53 53 132q580 809 682 923q-98 0 -162 -2q-311 -12 -489 -55q-43 90 -43 147q0 31 18.5 59.5t52.5 35.5q90 20 318 20q387 0 635 -39q35 -35 35 -78q0 -47 -45 -110q-279 -377 -459 -613.5t-221 -285.5l-41 -50q92 0 143 3q342 12 557 65q39 -88 39 -149 q0 -94 -164 -109q-135 -12 -352 -12q-317 0 -520 24q-37 45 -37 94zM285 1749q0 68 116 127q39 -49 95.5 -96t94.5 -70l38 -22q76 68 109.5 94t71.5 47.5t64 21.5q49 0 121 -77q-167 -183 -370 -316q-111 59 -225.5 151.5t-114.5 139.5z" />
<glyph unicode="&#x17e;" horiz-adv-x="1011" d="M33 116.5q0 61.5 45 106.5l534 557q-61 4 -92 4q-211 0 -428 -65q-18 66 -18 127q4 72 63 94q59 25 230 25q317 0 532 -41q33 -33 33 -95q0 -59 -35 -94l-543 -573h15q207 0 510 82q25 -61 24 -121q0 -43 -19.5 -69.5t-42 -35t-63.5 -16.5q-115 -14 -299 -14 q-250 0 -411 24q-35 43 -35 104.5zM182 1354q0 68 117 127q39 -49 95.5 -96.5t93.5 -69.5l38 -23q76 68 110 94.5t71.5 48t64.5 21.5q49 0 121 -78q-168 -182 -371 -315q-111 59 -225.5 151.5t-114.5 139.5z" />
<glyph unicode="&#x192;" d="M-6 -135q0 55 50 99t151 54q16 -96 59 -96q49 0 65.5 57.5t26.5 190.5l37 580l-147 -11q-10 27 -11 45q0 68 92 74l74 4q10 137 54 240.5t110 162t141.5 87t159.5 28.5q242 0 242 -123q0 -115 -211 -151q-18 96 -76 96q-66 0 -89.5 -59.5t-31.5 -177.5l-6 -86 q201 16 281 28q12 -25 12 -65q0 -63 -38 -83t-116 -20q-96 0 -145 2l-25 -475q-6 -117 -28.5 -203t-70.5 -159.5t-135 -111.5t-210 -38q-215 0 -215 111z" />
<glyph unicode="&#x2c6;" horiz-adv-x="714" d="M-2 1157q168 183 371 316q336 -184 336 -293q0 -35 -36 -70t-91 -47q-110 128 -213 182q-203 -166 -252 -166q-35 0 -58.5 15.5t-56.5 62.5z" />
<glyph unicode="&#x2c7;" horiz-adv-x="718" d="M35 1354q0 68 117 127q39 -49 95 -96.5t94 -69.5l38 -23q76 68 109.5 94.5t71.5 48t65 21.5q49 0 120 -78q-167 -182 -370 -315q-111 59 -225.5 151.5t-114.5 139.5z" />
<glyph unicode="&#x2d8;" horiz-adv-x="720" d="M0 1386.5q0 94.5 178 102.5q23 -92 64 -136t118.5 -44t118.5 44t64 136q178 -8 178 -102.5t-101.5 -193.5t-259 -99t-259 99t-101.5 193.5z" />
<glyph unicode="&#x2d9;" horiz-adv-x="374" d="M0 1257q0 80 57.5 135.5t133 55.5t130 -55.5t54.5 -135.5q0 -82 -57.5 -137t-131.5 -55q-78 0 -132 54.5t-54 137.5z" />
<glyph unicode="&#x2da;" horiz-adv-x="473" d="M20 1343q0 109 67 174.5t171 65.5q106 0 171 -65.5t65 -174.5q0 -106 -65 -171.5t-171 -65.5q-104 0 -171 65.5t-67 171.5zM145 1354q0 -63 31 -104.5t82 -41.5q53 0 82 34t29 91q0 63 -31 105.5t-80 42.5q-51 0 -82 -35t-31 -92z" />
<glyph unicode="&#x2db;" horiz-adv-x="911" d="M262 -285q0 92 78 179.5t221 136.5l158 -17q-92 -47 -146.5 -123.5t-54.5 -140.5q0 -74 60 -74q31 0 66.5 21.5t57.5 54.5q96 -51 97 -110q0 -63 -75 -97t-179 -34q-135 0 -209 58t-74 146z" />
<glyph unicode="&#x2dc;" horiz-adv-x="745" d="M0 1204q0 70 83 137.5t179 67.5q49 0 140.5 -44t125.5 -44q47 0 138 82q27 -4 53 -27.5t26 -56.5q0 -72 -81.5 -138.5t-180.5 -66.5q-49 0 -139 44t-125 44q-45 0 -139 -82q-80 29 -80 84z" />
<glyph unicode="&#x2dd;" horiz-adv-x="1026" d="M10 1169q0 39 42 71t140.5 104.5t190.5 171.5q127 -59 127 -136q0 -51 -59 -86q-53 -39 -188.5 -117.5t-166.5 -105.5q-86 47 -86 98zM508 1169q0 39 42 71t140 104.5t191 171.5q127 -59 127 -136q-1 -51 -60 -86q-53 -39 -188 -117.5t-166 -105.5q-86 47 -86 98z" />
<glyph unicode="&#x3c0;" horiz-adv-x="1177" d="M12 848q0 55 28 92t85 37l79 -1q79 -1 241.5 -2t367.5 -1q217 0 320 39q18 -51 18 -101q0 -129 -109 -129h-96q-12 -227 -12 -436v-45q0 -174 37 -281q-72 -27 -170 -26q-172 0 -172 129q0 29 3 164t3 213q0 213 2 286h-129v-286q0 -78 3 -205t3 -156q0 -35 -4 -55.5 t-18.5 -44t-50 -34.5t-93.5 -11q-98 0 -151 26q31 94 30 263q0 119 -3 234.5t-7 186t-4 80.5q-102 -4 -178 -36q-23 45 -23 100z" />
<glyph unicode="&#x2000;" horiz-adv-x="989" />
<glyph unicode="&#x2001;" horiz-adv-x="1978" />
<glyph unicode="&#x2002;" horiz-adv-x="989" />
<glyph unicode="&#x2003;" horiz-adv-x="1978" />
<glyph unicode="&#x2004;" horiz-adv-x="659" />
<glyph unicode="&#x2005;" horiz-adv-x="494" />
<glyph unicode="&#x2006;" horiz-adv-x="329" />
<glyph unicode="&#x2007;" horiz-adv-x="329" />
<glyph unicode="&#x2008;" horiz-adv-x="247" />
<glyph unicode="&#x2009;" horiz-adv-x="395" />
<glyph unicode="&#x200a;" horiz-adv-x="109" />
<glyph unicode="&#x2010;" horiz-adv-x="579" d="M51 514q0 55 37 95t117 40q12 0 71.5 -6t94.5 -6h16q88 0 160 31q22 -62 22 -117q0 -61 -42 -98t-111 -37q-23 0 -82.5 7t-91.5 7q-78 0 -176 -33q-14 72 -15 117z" />
<glyph unicode="&#x2011;" horiz-adv-x="579" d="M51 514q0 55 37 95t117 40q12 0 71.5 -6t94.5 -6h16q88 0 160 31q22 -62 22 -117q0 -61 -42 -98t-111 -37q-23 0 -82.5 7t-91.5 7q-78 0 -176 -33q-14 72 -15 117z" />
<glyph unicode="&#x2012;" horiz-adv-x="579" d="M51 514q0 55 37 95t117 40q12 0 71.5 -6t94.5 -6h16q88 0 160 31q22 -62 22 -117q0 -61 -42 -98t-111 -37q-23 0 -82.5 7t-91.5 7q-78 0 -176 -33q-14 72 -15 117z" />
<glyph unicode="&#x2013;" horiz-adv-x="1218" d="M61 520q0 55 37 95t117 40q27 0 148.5 -6t195.5 -6h244q182 0 334 31q20 -62 20 -117q0 -61 -42 -98t-111 -37q-45 0 -165 7t-186 7h-217q-162 0 -360 -33q-14 72 -15 117z" />
<glyph unicode="&#x2014;" horiz-adv-x="1798" d="M61 520q0 55 37 95t117 40q27 0 145.5 -6t192.5 -6h829q182 0 334 31q21 -62 21 -117q0 -61 -42 -98t-112 -37q-45 0 -165 7t-185 7h-797q-162 0 -360 -33q-14 72 -15 117z" />
<glyph unicode="&#x2018;" horiz-adv-x="468" d="M27 1135q0 143 94 262t244 119q76 0 75 -80q0 -10 -4 -43h-10q-55 0 -96 -44t-41 -94q0 -84 92 -98q20 -43 20 -92q0 -72 -50 -117t-132 -45q-92 0 -142 65.5t-50 166.5z" />
<glyph unicode="&#x2019;" horiz-adv-x="571" d="M66 983q0 10 4 43h10q55 0 96 44t41 93q0 84 -92 99q-21 43 -21 92q0 72 50.5 117t132.5 45q92 0 142 -66t50 -166q0 -143 -94 -262t-244 -119q-76 0 -75 80z" />
<glyph unicode="&#x201a;" horiz-adv-x="516" d="M68 -254q0 10 4 43h10q55 0 96 44t41 93q0 84 -92 99q-21 43 -21 92q0 72 50.5 117t132.5 45q92 0 142 -66t50 -166q0 -143 -94 -262t-244 -119q-76 0 -75 80z" />
<glyph unicode="&#x201c;" horiz-adv-x="1034" d="M39 1135q0 143 94 262t244 119q76 0 76 -80q0 -10 -4 -43h-11q-55 0 -96 -44t-41 -94q0 -84 92 -98q21 -43 21 -92q0 -72 -50.5 -117t-132.5 -45q-92 0 -142 65.5t-50 166.5zM567 1135q0 143 94.5 262t243.5 119q76 0 76 -80q0 -10 -4 -43h-10q-55 0 -96.5 -44t-41.5 -94 q0 -84 93 -98q20 -43 20 -92q0 -72 -50 -117t-132 -45q-92 0 -142.5 65.5t-50.5 166.5z" />
<glyph unicode="&#x201d;" horiz-adv-x="1091" d="M98 983q0 10 4 43h11q55 0 96 44t41 93q0 84 -92 99q-21 43 -21 92q0 72 50.5 117t131.5 45q92 0 142.5 -66t50.5 -166q0 -143 -94 -262t-244 -119q-76 0 -76 80zM616 983q0 10 5 43h10q55 0 96 44t41 93q0 84 -92 99q-21 43 -21 92q0 72 50.5 117t132.5 45q92 0 142 -66 t50 -166q0 -143 -94 -262t-244 -119q-76 0 -76 80z" />
<glyph unicode="&#x201e;" horiz-adv-x="1032" d="M35 -254q0 10 4 43h10q55 0 96 44t41 93q0 84 -92 99q-20 43 -20 92q0 72 50 117t132 45q92 0 142.5 -66t50.5 -166q0 -143 -94.5 -262t-243.5 -119q-76 0 -76 80zM553 -254q0 10 4 43h10q55 0 96.5 44t41.5 93q0 84 -93 99q-20 43 -20 92q0 72 50 117t132 45 q92 0 142.5 -66t50.5 -166q0 -143 -94.5 -262t-243.5 -119q-76 0 -76 80z" />
<glyph unicode="&#x2020;" horiz-adv-x="1038" d="M59 928q0 150 113 149q29 0 99.5 -12t105.5 -14q0 27 -27 315q86 12 172 12q76 0 168 -12q-25 -279 -26 -315q141 2 294 49q18 -59 19 -115q0 -145 -119 -145q-35 0 -94 6t-102 6q6 -319 15 -519t15 -266.5t6 -84.5q0 -73 -170 -192l-10 -7q-20 14 -49 35.5t-78 75 t-49 88.5q0 18 6 84.5t15.5 266t15.5 521.5q-78 -2 -176.5 -12.5t-132.5 -12.5q-10 47 -11 99z" />
<glyph unicode="&#x2021;" horiz-adv-x="1036" d="M59 176q0 145 119 146q35 0 94.5 -6.5t102.5 -6.5q-27 260 -27 273q0 20 31 272q-78 -2 -176.5 -12.5t-132.5 -12.5q-10 47 -11 99q0 150 113 149q29 0 99.5 -12t105.5 -14q0 27 -27 315q86 12 172 12q76 0 168 -12q-25 -279 -26 -315q141 2 294 49q18 -59 19 -115 q0 -145 -119 -145q-35 0 -94 6t-102 6q31 -246 30 -270q1 -15 -26 -275q76 2 170 12.5t131 12.5q10 -47 10 -99q0 -150 -113 -149q-29 0 -99.5 12.5t-105.5 14.5q0 -27 27 -316q-86 -12 -172 -12q-76 0 -168 12q25 279 27 316q-141 -2 -295 -50q-18 59 -19 115z" />
<glyph unicode="&#x2022;" horiz-adv-x="704" d="M33 549q0 141 95 238.5t226 97.5t224.5 -97.5t93.5 -238.5q0 -145 -92.5 -238.5t-225.5 -93.5t-227 93t-94 239z" />
<glyph unicode="&#x2026;" horiz-adv-x="1871" d="M55 172q0 80 57.5 135t133.5 55t130 -55t54 -135q0 -82 -57 -137t-131 -55q-78 0 -132.5 54t-54.5 138zM752 172q0 80 57 135t133 55t130 -55t54 -135q0 -82 -57 -137t-131 -55q-78 0 -132 54t-54 138zM1444 172q0 80 57.5 135t133 55t130 -55t54.5 -135 q0 -82 -57.5 -137t-131.5 -55q-78 0 -132 54t-54 138z" />
<glyph unicode="&#x202f;" horiz-adv-x="395" />
<glyph unicode="&#x2030;" horiz-adv-x="2678" d="M66 1022q0 158 95 249t257 91q160 0 254 -92t94 -248t-94 -248t-254 -92q-162 0 -257 92t-95 248zM305 1047q0 -84 28.5 -148.5t82.5 -64.5q49 0 78.5 49t29.5 125q0 80 -27.5 142t-78.5 62q-49 0 -81 -47t-32 -118zM422 20q-1 35 24 70l478 756q211 332 350 586 q51 -2 92 -29t41 -66q0 -31 -21 -61l-477 -758q-186 -295 -352 -586q-127 27 -135 88zM1040 319q0 158 95.5 249t257.5 91q160 0 254 -92t94 -247.5t-94 -247.5t-254 -92q-162 0 -257.5 92t-95.5 247zM1280 344q0 -84 28.5 -148.5t82.5 -64.5q49 0 78.5 49t29.5 125 q0 80 -27.5 142.5t-78.5 62.5q-49 0 -81 -47t-32 -119zM1911 319q0 158 95 249t257 91q160 0 254 -92t94 -247.5t-94 -247.5t-254 -92q-162 0 -257 92t-95 247zM2150 344q0 -84 29 -148.5t82 -64.5q49 0 79 49t30 125q0 80 -28 142.5t-79 62.5q-49 0 -81 -47t-32 -119z" />
<glyph unicode="&#x2039;" horiz-adv-x="655" d="M53 481q225 309 375 432q90 -41 117.5 -68.5t27.5 -58.5q0 -29 -64 -124t-136 -181q68 -82 135 -184t67 -133q0 -61 -145 -115q-154 129 -377 432z" />
<glyph unicode="&#x203a;" horiz-adv-x="655" d="M53 164q0 31 67.5 133t135.5 184q-72 86 -136.5 181.5t-64.5 123.5q0 31 28 58.5t118 68.5q150 -123 374 -432q-223 -303 -376 -432q-145 53 -146 115z" />
<glyph unicode="&#x2044;" horiz-adv-x="714" d="M-135 -135q0 24 18 57l482 971q201 403 290 620q53 0 98.5 -23.5t45.5 -66.5q0 -18 -62 -143l-61 -126q-21 -42 -42.5 -84t-110.5 -219t-228 -456q-197 -399 -287 -618q-59 0 -101 22.5t-42 65.5z" />
<glyph unicode="&#x205f;" horiz-adv-x="494" />
<glyph unicode="&#x20ac;" d="M53 537q0 78 80 77h74q-2 23 -2 70v41q-51 -2 -142 -14q-10 35 -10 51q0 78 80 78h84q45 244 221 391t453 147q307 0 307 -121q0 -90 -78 -147q-102 76 -235 76q-152 0 -240 -97.5t-117 -248.5h68q295 0 475 16l6 -45q0 -84 -80 -84h-481q-2 -16 -2 -47q0 -43 2 -66h80 q295 0 475 17l6 -45q0 -84 -80 -84h-462q33 -141 114.5 -230.5t218.5 -89.5q115 0 234 84q43 -31 69.5 -71.5t26.5 -71.5q0 -74 -91 -107.5t-216 -33.5q-279 0 -450 140t-218 378q-84 -4 -160 -15q-10 35 -10 52z" />
<glyph unicode="&#x2122;" horiz-adv-x="1921" d="M133 1239q0 96 80 96h303q207 0 272 6q16 -27 17 -65q0 -41 -18.5 -70.5t-57.5 -29.5h-149v-347q0 -135 26 -213q-63 -20 -125 -20q-123 0 -123 100v480q-145 0 -211 -9q-14 37 -14 72zM905 1331q61 12 133 12q109 0 150 -75q82 -160 168 -439q74 248 168 441 q18 35 67 54t105 19q82 0 131 -16q-19 -78 -19 -197v-307q0 -129 25 -215q-53 -14 -107 -14q-139 0 -139 82q0 39 1 128t1 185q-59 -162 -114 -385q-57 -10 -113 -10q-113 0 -129 49q-18 57 -43 136t-43.5 134.5t-34.5 92.5v-183q0 -129 25 -215q-43 -14 -97 -14 q-119 0 -118 82v64q0 51 1 153t1 246q0 100 -19 192z" />
<glyph unicode="&#x2126;" horiz-adv-x="1763" d="M59 352q0 47 60 47q12 0 33 -8q76 -154 108 -198h334q-203 98 -307.5 231t-104.5 336q0 279 202 454t499 175q295 0 495.5 -175.5t200.5 -453.5q0 -203 -104.5 -336t-303.5 -231h332q45 63 109 198q20 8 35 8q57 0 57 -47q0 -76 -55 -352h-516q-150 0 -150 135q0 25 4 70 q254 180 254 534q-2 219 -94 341t-266 122q-172 0 -265.5 -123t-95.5 -340q0 -354 256 -534q6 -31 6 -70q0 -135 -151 -135h-514q-14 66 -36 195t-22 157z" />
<glyph unicode="&#x2202;" horiz-adv-x="1087" d="M66 373q0 215 105 352t261 137q139 0 270 -112q-4 201 -78.5 312.5t-209.5 111.5q-90 0 -215 -37q-35 90 -35 135q0 106 186 106q80 0 164 -20.5t175 -72.5t160 -131t114 -206t45 -286q0 -127 -31 -244t-92.5 -217.5t-170 -160.5t-249.5 -60q-195 0 -297 114.5 t-102 278.5zM375 344q0 -74 24.5 -121t71.5 -47q104 0 161.5 116t65.5 273q-73 103 -149 103q-74 0 -124 -94.5t-50 -229.5z" />
<glyph unicode="&#x2206;" horiz-adv-x="1394" d="M53 96q399 883 514 1170q20 55 140 55q47 0 108 -10q59 -137 276.5 -640t249.5 -573q0 -98 -90 -98h-1108q-90 0 -90 96zM326 244q106 -14 321 -15q207 0 291 11l-303 716z" />
<glyph unicode="&#x220f;" horiz-adv-x="1525" d="M27 1249.5q0 65.5 26.5 88t89.5 22.5q41 0 195 -2t240 -2h389q315 0 546 12q7 -41 7 -96q0 -113 -78 -113q-2 0 -219 8q0 -10 -5.5 -82.5t-8.5 -160.5t-3 -170v-338q0 -268 37 -396q-18 -8 -73.5 -17t-90.5 -9q-119 0 -156.5 32.5t-37.5 100.5q0 33 2 153.5t2 192.5v698 h-37q-184 0 -248 -2v-696q0 -72 2 -195.5t2 -156.5q0 -66 -38 -96.5t-146 -30.5q-102 0 -152 24q35 125 35 398v366q0 76 -3 158t-8 149.5t-5 77.5q-154 -6 -248 -26q-16 43 -16 108.5z" />
<glyph unicode="&#x2211;" horiz-adv-x="1288" d="M33 -84l432 707l-410 677q0 25 12.5 41.5t32.5 16.5h1041q59 -264 59 -326q0 -51 -74 -51q-16 0 -28 2q-57 160 -99 219h-571l234 -399q25 -43 24 -86q0 -37 -20 -72l-316 -532h684q33 57 84 198q12 2 29 2q74 0 74 -51q0 -27 -22.5 -178.5t-37.5 -210.5h-1098 q-12 0 -20 10.5t-9 21.5z" />
<glyph unicode="&#x2212;" d="M139 496q0 47 25.5 84.5t79.5 37.5q8 0 138 -10t224 -10q274 0 416 20q12 -25 12 -86q0 -51 -28.5 -86.5t-75.5 -35.5q-35 0 -157 11t-183 11q-231 0 -443 -22q-8 43 -8 86z" />
<glyph unicode="&#x221a;" horiz-adv-x="1159" d="M39 809q0 29 22 45q45 35 148 82t207 76l303 -654l217 1147q41 6 70 6q96 0 96 -61q0 -12 -281 -1434q-6 -31 -17 -47t-38 -24t-48.5 -9.5t-70.5 -1.5h-18l-410 883q-37 -14 -137 -72q-14 6 -28.5 27t-14.5 37z" />
<glyph unicode="&#x221e;" horiz-adv-x="1443" d="M14 532q0 141 98.5 235.5t243.5 94.5q104 0 189.5 -56t179.5 -161q72 72 113 107.5t114.5 72.5t147.5 37q141 0 234 -93t93 -232q0 -152 -103 -241t-245 -89q-88 0 -171 49t-189 160q-92 -94 -180 -150.5t-191 -56.5q-141 0 -237.5 93t-96.5 230zM197 526q0 -63 48 -105 t120 -42q113 0 256 143q-18 27 -50 59.5t-96.5 73.5t-122.5 41q-70 0 -112.5 -48t-42.5 -122zM827 541q141 -162 252 -162q76 0 122 44t46 118q0 76 -47 115.5t-119 39.5q-102 0 -237 -139z" />
<glyph unicode="&#x222b;" horiz-adv-x="913" d="M-41 -237.5q0 51.5 42 94.5t110 53q23 -72 45 -93.5t61 -21.5q104 0 105 297q0 121 -16.5 375t-16.5 385q0 311 138 486t343 175q90 0 137 -33.5t47 -84.5q0 -47 -38.5 -87t-102.5 -51q-20 39 -53 71t-66 32q-90 0 -90 -266q0 -131 8.5 -401.5t8.5 -377.5 q0 -176 -41 -310t-111 -211t-153 -114.5t-175 -37.5q-90 0 -136 34.5t-46 86z" />
<glyph unicode="&#x2248;" d="M6 193q0 88 95.5 166.5t191.5 78.5q82 0 173 -35.5t154.5 -78.5t131 -79t110.5 -36q51 0 96.5 43t98.5 143q112 -32 112 -114q0 -63 -86 -157.5t-192 -94.5q-78 0 -164 34.5t-149.5 77.5t-137 78t-127.5 35q-51 0 -98 -41t-102 -131q-106 45 -107 111zM6 664 q0 88 95.5 166.5t191.5 78.5q82 0 173 -35.5t154.5 -78.5t131 -79t110.5 -36q51 0 96.5 43t98.5 143q112 -32 112 -114q0 -63 -86 -157.5t-192 -94.5q-78 0 -164 34.5t-149.5 77.5t-137 78t-127.5 35q-51 0 -98 -41t-102 -131q-106 45 -107 111z" />
<glyph unicode="&#x2260;" d="M137 301q0 47 25.5 85t79.5 38q12 0 39.5 -2t72.5 -6t84 -6l127 229q-238 -2 -420 -23q-8 43 -8 86q0 47 25.5 85t79.5 38q8 0 139 -10t227 -10h49l125 223q20 37 58 117q94 -10 94 -64q0 -23 -45 -102l-96 -172q174 8 235 18q10 -41 10 -86q0 -51 -28.5 -87t-75.5 -36 q-33 0 -120 8.5t-118 10.5l-127 -232h39q279 0 420 21q10 -41 10 -86q0 -51 -28.5 -87t-75.5 -36q-35 0 -160 11.5t-186 11.5q-78 0 -113 -2l-117 -211q-45 -82 -57 -117q-94 10 -94 63q0 20 51 113l82 147q-92 -4 -195 -16q-8 43 -8 86z" />
<glyph unicode="&#x2264;" d="M229 80q0 47 26 85t79 38q6 0 104.5 -10.5t167.5 -10.5q209 0 314 21q10 -25 10 -86q0 -51 -29 -87t-76 -36q-27 0 -118 11t-138 11q-174 0 -331 -22q-8 43 -9 86zM244 649l422 361q39 33 73 32q43 0 84 -30.5t60 -69.5l-416 -293l418 -274q-23 -43 -63 -72t-81 -29 q-39 0 -73 33z" />
<glyph unicode="&#x2265;" d="M246 117q0 61 10 86q104 -20 313 -21q70 0 168.5 10.5t104.5 10.5q53 0 78.5 -38t25.5 -85q0 -43 -8 -86q-158 23 -332 22q-47 0 -138 -11t-118 -11q-47 0 -75.5 36t-28.5 87zM291 377l418 274l-416 293q18 39 59 69.5t84 30.5q35 0 74 -32l422 -361l-424 -342 q-35 -33 -74 -33q-41 0 -80.5 29t-62.5 72z" />
<glyph unicode="&#x25ca;" horiz-adv-x="999" d="M29 702l356 660q23 43 115 43q90 0 114 -43l357 -660l-361 -665q-20 -37 -110 -37t-115 45zM233 702l267 -503l268 503l-268 504z" />
<glyph unicode="&#xe000;" horiz-adv-x="995" d="M0 995h995v-995h-995v995z" />
<glyph unicode="&#xf724;" d="M131 152q0 94 168 151q33 -70 98.5 -106.5t141.5 -40.5v309q-72 23 -110 36t-100.5 46t-95 70.5t-58 100t-25.5 142.5q0 145 110.5 226t276.5 100q-2 57 -11 139q25 12 52 12q76 0 75 -80v-67q152 -4 258.5 -48t106.5 -118q-1 -121 -187 -150q-51 106 -178 125v-290 q59 -18 78 -24.5t73 -27t76.5 -35t60.5 -44t54.5 -59.5t30.5 -75t14 -96q0 -162 -104.5 -254t-273.5 -110q2 -45 10 -121l-45 -6q-80 0 -88 80v45q-57 2 -118 10t-131.5 25.5t-114.5 52t-44 82.5zM440 874q0 -76 99 -122v239q-99 -35 -99 -117zM657 176q99 43 99 135 q0 68 -99 111v-246z" />
<glyph unicode="&#xf726;" horiz-adv-x="1011" d="M59 268q0 115 46.5 168t125.5 80q156 49 369 62q0 125 -27.5 175t-115.5 50q-51 0 -109.5 -43t-85.5 -117q-180 33 -180 154q0 82 117.5 139t283.5 57q215 0 317.5 -82t102.5 -272q0 -16 -2 -120.5t-2 -156.5q0 -236 39 -352q-90 -25 -160 -24q-147 0 -172 118 q-49 -57 -126 -90.5t-154 -33.5q-113 0 -190 72.5t-77 215.5zM104 1339q0 72 51.5 122t120.5 50q68 0 117 -49t49 -122.5t-52 -124t-118 -50.5q-70 0 -119 49.5t-49 124.5zM365 272q0 -51 24.5 -76.5t61.5 -25.5q86 0 143 51q-2 18 -2 62q0 73 6 147q-61 -10 -94 -18.5 t-71 -25.5t-53 -45t-15 -69zM535 1339q0 72 51 122t121 50q68 0 116.5 -49t48.5 -122.5t-52 -124t-118 -50.5q-70 0 -118.5 49.5t-48.5 124.5z" />
<glyph unicode="&#xf730;" horiz-adv-x="1103" d="M59 485q0 236 133.5 373t358.5 137t359 -137t134 -373q0 -231 -134 -368t-359 -137t-358.5 137t-133.5 368zM297 510q0 -100 60.5 -176t191.5 -76q127 0 192.5 62.5t65.5 150.5q0 94 -60.5 169t-195.5 75q-123 0 -188.5 -61.5t-65.5 -143.5z" />
<glyph unicode="&#xf731;" horiz-adv-x="811" d="M59 831q0 113 103 132q170 31 311 30q63 0 96 -21.5t33 -84.5q0 -12 -4 -70.5t-8 -152t-4 -187.5v-74q0 -140 14 -210q68 0 162 8q18 -37 18 -86q0 -55 -25.5 -87t-70.5 -32q-18 0 -132 2t-233 2q-145 0 -231 -2q-20 53 -20 94q0 106 135 107h82q0 20 2 135t2 198 q0 96 -4 252q-168 -20 -217 -28q-8 41 -9 75z" />
<glyph unicode="&#xf732;" horiz-adv-x="1011" d="M29 147q0 35 2 52q256 98 397 239.5t141 253.5q0 51 -41 88t-98 37q-127 0 -209 -168q-70 8 -105.5 42t-35.5 83q0 72 129 145.5t289 73.5q190 0 285.5 -73.5t95.5 -192.5q0 -137 -117 -280.5t-322 -233.5q201 0 377 14q98 6 156 23q25 -53 24 -111q0 -131 -143 -137 q-127 -6 -403 -6q-135 0 -324 4q-98 0 -98 147z" />
<glyph unicode="&#xf733;" horiz-adv-x="942" d="M14 -201q0 45 34 87t81 61q61 -72 193 -72q94 0 162.5 47t68.5 137q0 100 -77 164t-208 64q-94 0 -94 112q0 31 6 66q170 0 254 62.5t84 150.5q0 59 -33.5 90t-87.5 31q-70 0 -132 -43t-91 -121q-78 10 -118 50t-40 97q0 72 125 141.5t285 69.5q186 0 291.5 -90 t105.5 -213q0 -82 -59 -157.5t-158 -118.5q113 -35 183.5 -126t70.5 -200q0 -182 -158.5 -298t-433.5 -116q-254 0 -254 125z" />
<glyph unicode="&#xf734;" horiz-adv-x="1124" d="M0 205q0 23 4 51q88 141 276.5 381.5t276.5 314.5q45 39 203 39q88 0 131 -12q-18 -233 -19 -576v-122q150 12 199 34q23 -68 23 -114q0 -88 -41 -107q-51 -25 -179 -26q0 -193 50 -367q-86 -27 -166 -27q-106 0 -145.5 31t-39.5 94q0 66 5 267q-420 0 -533 20 q-45 8 -45 119zM289 274q68 -6 139 -6q55 0 150 4v400q-133 -138 -289 -398z" />
<glyph unicode="&#xf735;" horiz-adv-x="964" d="M33 -182q0 43 38 83t95 54q59 -86 186 -86q113 0 179.5 70.5t66.5 166.5q0 100 -76 175t-215 75q-82 0 -205 -14q-20 31 -20 131q0 49 27 504q70 -4 475 -4q195 0 258 16q31 -47 30 -106q1 -135 -194 -135q-96 0 -297 14l-23 -232q61 10 154 11q184 0 288.5 -108.5 t104.5 -309.5q0 -199 -150.5 -324t-404.5 -125q-156 0 -236.5 45t-80.5 99z" />
<glyph unicode="&#xf736;" horiz-adv-x="1036" d="M59 483q0 143 47.5 285.5t133.5 261.5t223 193.5t301 74.5q141 0 141 -114q0 -31 -12 -97q-47 14 -137 15q-113 0 -193 -52.5t-120 -143.5t-57 -185t-17 -205q0 -340 161 -340q68 0 108 79t40 183q0 231 -146 232q-14 0 -22 -2q-18 53 -18 88q0 43 40.5 68.5t104.5 25.5 q141 0 240.5 -88t99.5 -262q0 -223 -120 -371.5t-341 -148.5q-236 0 -346.5 141t-110.5 362z" />
<glyph unicode="&#xf737;" horiz-adv-x="956" d="M-51 897q0 55 24 94q119 -16 275 -16q551 0 678 4q20 -31 20 -76q0 -43 -12 -80q-37 -115 -199 -448.5t-284 -558.5q-45 -80 -82 -111t-86 -31q-59 0 -123 34t-101 91q160 156 319 442t251 519q-317 -10 -523 -10q-158 0 -157 147z" />
<glyph unicode="&#xf738;" horiz-adv-x="1052" d="M51 334q0 111 74 204t219 150q-113 41 -176.5 125t-63.5 174q0 121 107.5 206t312.5 85q203 0 312.5 -85t109.5 -206q0 -180 -246 -276q154 -55 227.5 -157.5t73.5 -219.5q0 -147 -122.5 -250.5t-352 -103.5t-352.5 103t-123 251zM362 348q0 -76 40 -124t122 -48 q74 0 118 46t44 114q0 156 -192 262q-59 -35 -95.5 -105.5t-36.5 -144.5zM410 997q0 -53 42 -111.5t103 -84.5q35 27 58.5 76t23.5 98t-28 79.5t-85 30.5q-115 0 -114 -88z" />
<glyph unicode="&#xf739;" horiz-adv-x="1036" d="M59 473q0 223 120 371.5t341 148.5q236 0 346.5 -141t110.5 -363q0 -143 -47 -285.5t-133 -261t-223.5 -193.5t-301.5 -75q-141 0 -141 115q0 31 12 96q47 -14 138 -14q113 0 192.5 52t119.5 143.5t57.5 185.5t17.5 205q0 340 -162 340q-68 0 -108 -79t-40 -183 q0 -231 146 -232q2 0 10 1t12 1q18 -51 19 -88q0 -43 -41 -68.5t-105 -25.5q-141 0 -240.5 88t-99.5 262z" />
<glyph unicode="&#xf7a2;" d="M106 479q0 211 130.5 346.5t341.5 161.5q-2 39 -8.5 105.5t-6.5 74.5q51 10 53 11q80 0 80 -82v-103q76 -4 157 -24.5t147.5 -68.5t66.5 -112q0 -47 -50 -83t-138 -50q-80 129 -183 142l2 -621q125 8 205 121q166 -47 166 -152q0 -82 -106.5 -123.5t-264.5 -41.5 q0 -68 13 -179l-45 -6q-88 0 -88 82v111q-217 29 -344.5 155.5t-127.5 335.5zM424 475q0 -219 154 -280v583q-72 -33 -113 -112.5t-41 -190.5z" />
<glyph unicode="&#xf8ff;" horiz-adv-x="1671" d="M164 12q6 86 37 209l16 62q8 49 52 89t110 48q45 6 166 51q106 39 153 41q8 115 11 176q-88 29 -136.5 124t-48.5 237q0 170 102.5 265t288.5 95q248 0 297 -223q6 -37 7 -107q0 -123 -11 -178q-27 -66 -37 -168q-10 -80 -32 -106q-16 -18 -62 -23q2 -18 5 -52t3 -40 q125 -37 213 -47q63 -6 106.5 -46t55.5 -87q16 -61 23 -92q25 -113 24 -228q0 -14 -14 -14h-53q-12 0 -13 12q0 14 15 15h39q0 96 -37 256l-10 45q-8 41 -45 73.5t-97 38.5q-88 8 -200 45q-29 10 -31 15q-2 12 -5 53t-5 55q-55 0 -109 27q-6 2 -6 14t14 12q2 0 36 -13 t83 -13q41 0 55 14q8 10 25.5 122t32.5 142q8 27 8 133q0 94 -8 136q-37 199 -267 198q-172 0 -268 -87t-96 -242q0 -133 46 -224.5t126 -111.5q12 -4 12 -16.5t-6 -107.5t-8 -100q-4 -4 -8 -4q-53 0 -178 -47q-109 -43 -154 -49q-115 -16 -139 -110l-15 -60 q-29 -123 -34 -194h290q14 0 15 -13q0 -14 -15 -14h-305q-14 0 -14 14zM973 1171l12 31l57 -31l-6 -14zM985 1108l53 45l11 -10l-37 -58zM1034 1239h35l-10 -63h-15zM1055 1143l10 10l53 -45l-26 -23zM1061 1171l57 31l12 -31l-65 -14z" />
<glyph unicode="&#xfb00;" horiz-adv-x="1525" d="M6 856q0 115 166 115q0 92 9 158.5t36 133t74 108.5t126 67.5t189 25.5q234 0 234 -106q0 -68 -72 -144q-51 53 -141 54q-92 0 -124 -53.5t-32 -167.5v-78h434v2q0 92 9.5 158.5t36 133t73.5 108.5t126 67.5t189 25.5q233 0 234 -106q0 -68 -72 -144q-51 53 -141 54 q-92 0 -124 -53.5t-32 -167.5v-78q182 4 271 16q14 -29 14 -84q0 -68 -38 -93.5t-114 -27.5q-96 -2 -133 -2v-395q0 -252 37 -373q-70 -16 -149 -16q-109 0 -150 24.5t-41 81.5q0 23 2 256.5t2 419.5v2h-434v-395q0 -252 37 -373q-70 -16 -150 -16q-109 0 -149.5 24.5 t-40.5 81.5q0 23 2 256.5t2 419.5q-39 0 -149 -12q-16 43 -17 92z" />
<glyph unicode="&#xfb01;" horiz-adv-x="1236" d="M6 856q0 115 166 115q4 252 155.5 375.5t424.5 123.5q150 0 251 -44t101 -128q0 -78 -61.5 -113.5t-202.5 -37.5q-25 61 -61 92t-101 31q-86 0 -146.5 -54.5t-60.5 -168.5v-78h401q58 10 107 10q78 0 121 -26.5t43 -104.5q0 -12 -7.5 -180t-7.5 -252q0 -291 35 -396 q-86 -27 -170 -26q-96 0 -134 33.5t-38 99.5q0 33 3 153.5t3 192.5q0 164 -6 305h-350v-395q0 -252 37 -373q-70 -16 -150 -16q-109 0 -149.5 24.5t-40.5 81.5q0 23 2 256.5t2 419.5q-39 0 -149 -12q-16 43 -17 92z" />
<glyph unicode="&#xfb02;" horiz-adv-x="1368" d="M6 856q0 115 166 115q0 92 9 158.5t36 133t74 108.5t126 67.5t189 25.5q234 0 234 -106q0 -68 -72 -144q-51 53 -141 54q-92 0 -124 -53.5t-32 -167.5v-78q182 4 270 16q14 -29 15 -84q0 -68 -38 -93.5t-114 -27.5q-96 -2 -133 -2v-395q0 -252 37 -373q-70 -16 -150 -16 q-109 0 -149.5 24.5t-40.5 81.5q0 23 2 256.5t2 419.5q-39 0 -149 -12q-16 43 -17 92zM938 1495q78 27 166 27q78 0 121 -27t43 -104q0 -12 -7.5 -180.5t-7.5 -252.5v-561q0 -270 35 -377q-86 -27 -170 -26q-96 0 -134 33.5t-38 99.5q0 33 3 143.5t3 180.5v565 q0 293 -14 479z" />
<glyph unicode="&#xfb03;" horiz-adv-x="1970" d="M6 856q0 115 166 115q0 92 9 158.5t36 133t74 108.5t126 67.5t189 25.5q233 0 234 -106q0 -68 -72 -144q-51 53 -141 54q-92 0 -124 -53.5t-32 -167.5v-78h434v2q0 250 153.5 374.5t426.5 124.5q150 0 251 -44t101 -128q0 -78 -61.5 -113.5t-202.5 -37.5q-25 61 -60.5 92 t-101.5 31q-86 0 -146.5 -54.5t-60.5 -168.5v-78h402q57 10 106 10q78 0 121 -26.5t43 -104.5q0 -12 -7 -180t-7 -252q0 -291 34 -396q-86 -27 -170 -26q-96 0 -134 33.5t-38 99.5q0 33 3.5 153.5t3.5 192.5q0 164 -7 305h-350v-395q0 -252 37 -373q-70 -16 -149 -16 q-109 0 -150 24.5t-41 81.5q0 23 2 256.5t2 419.5v2h-434v-395q0 -252 37 -373q-70 -16 -150 -16q-109 0 -149.5 24.5t-40.5 81.5q0 23 2 256.5t2 419.5q-39 0 -149 -12q-16 43 -17 92z" />
<glyph unicode="&#xfb04;" horiz-adv-x="2101" d="M6 856q0 115 166 115q0 92 9 158.5t36 133t74 108.5t126 67.5t189 25.5q234 0 234 -106q0 -68 -72 -144q-51 53 -141 54q-92 0 -124 -53.5t-32 -167.5v-78h434v2q0 92 9.5 158.5t36 133t73.5 108.5t126 67.5t189 25.5q233 0 234 -106q0 -68 -72 -144q-51 53 -141 54 q-92 0 -124 -53.5t-32 -167.5v-78q182 4 271 16q14 -29 14 -84q0 -68 -38 -93.5t-114 -27.5q-96 -2 -133 -2v-395q0 -252 37 -373q-70 -16 -149 -16q-109 0 -150 24.5t-41 81.5q0 23 2 256.5t2 419.5v2h-434v-395q0 -252 37 -373q-70 -16 -150 -16q-109 0 -149.5 24.5 t-40.5 81.5q0 23 2 256.5t2 419.5q-39 0 -149 -12q-16 43 -17 92zM1671 1495q78 27 166 27q78 0 121 -27t43 -104q0 -12 -7 -180.5t-7 -252.5v-561q0 -270 34 -377q-86 -27 -170 -26q-96 0 -134 33.5t-38 99.5q0 33 3.5 143.5t3.5 180.5v565q0 293 -15 479z" />
<glyph unicode="&#xfb06;" horiz-adv-x="1798" d="M53 152q0 111 166 172q20 -74 77.5 -111t121.5 -37q137 0 137 98q0 47 -72.5 77t-158.5 49.5t-159 88t-73 183.5q0 145 124 233t280 88q94 0 180 -26q-14 45 -14 92q0 137 114.5 214t272.5 77q141 0 262 -68t121 -199q0 -18 -3.5 -60t-3.5 -52q213 0 338 16 q14 -29 15 -88q0 -109 -121 -115q-78 -4 -236 -4q-6 -203 -6 -405q0 -49 2 -75t11.5 -62.5t33 -53t60.5 -16.5q102 0 164 61q84 -59 83 -120q0 -57 -70.5 -93t-168.5 -36q-223 0 -316.5 98t-93.5 293v409q-106 -2 -182 -14q-16 45 -16 86q0 121 165 121h29l-4 123 q-2 63 -29.5 89.5t-93.5 26.5q-82 0 -143.5 -68.5t-61.5 -156.5q0 -55 35 -121h-2q14 -29 14 -55q0 -55 -50 -95t-150 -52q-16 63 -57.5 98t-90.5 35q-47 0 -79.5 -24.5t-32.5 -72.5q0 -49 48 -77.5t116.5 -46t137 -43t117 -85t48.5 -151.5q0 -156 -124 -236.5t-292 -80.5 q-53 0 -104.5 5t-118 20t-106.5 53t-40 94z" />
<glyph d="M41 457q0 82 82 82h67v47v43q-106 -10 -141 -15q-8 45 -8 50q0 82 82 81h84q51 215 231 328t443 113q125 0 204.5 -31t79.5 -88q0 -86 -86 -141q-82 66 -196 65q-127 0 -220.5 -67.5t-134.5 -178.5h29q276 0 479 19l8 -47q0 -84 -81 -84h-461q-2 -16 -2 -49q0 -31 2 -45 h55q276 0 479 18l8 -47q0 -84 -81 -84h-439q41 -113 133.5 -180.5t227.5 -67.5q110 1 194 64q86 -51 86 -146q0 -115 -293 -114q-258 0 -437 107.5t-228 332.5q-109 -8 -158 -14q-8 45 -8 49z" />
<glyph horiz-adv-x="770" d="M-174 -158q0 78 92 160q94 -88 211 -88q94 0 156.5 64.5t62.5 189.5q0 6 1 217t1 489q0 260 -16 474q103 16 160 16q88 0 138 -30.5t50 -78.5q0 -2 -7 -152.5t-7 -248.5q0 -119 1 -294t2 -303t1 -134q0 -199 -151.5 -306.5t-416.5 -107.5q-51 0 -107 8.5t-113.5 41 t-57.5 83.5z" />
<glyph horiz-adv-x="1130" d="M59 473q0 238 141.5 379t372.5 141q250 0 463 -159q-25 -246 -24 -472q0 -236 39 -352q-106 -25 -156 -24q-150 0 -176 118q-102 -124 -262 -124q-164 0 -281 141t-117 352zM367 514q0 -147 56 -244.5t134 -97.5q92 0 152 90q-2 25 -2 78q0 66 11 222.5t11 178.5 q-90 55 -166 56q-100 0 -148 -84t-48 -199z" />
<glyph horiz-adv-x="1130" d="M59 473q0 238 141.5 379t372.5 141q250 0 463 -159q-25 -246 -24 -472q0 -236 39 -352q-106 -25 -156 -24q-150 0 -176 118q-102 -124 -262 -124q-164 0 -281 141t-117 352zM356 1176q0 39 53.5 78.5t123 70.5t152.5 85t126 112q109 -59 109 -142q-1 -59 -50 -92 q-49 -31 -227 -105.5t-215 -111.5q-72 57 -72 105zM367 514q0 -147 56 -244.5t134 -97.5q92 0 152 90q-2 25 -2 78q0 66 11 222.5t11 178.5q-90 55 -166 56q-100 0 -148 -84t-48 -199z" />
<glyph horiz-adv-x="1130" d="M59 473q0 238 141.5 379t372.5 141q250 0 463 -159q-25 -246 -24 -472q0 -236 39 -352q-106 -25 -156 -24q-150 0 -176 118q-102 -124 -262 -124q-164 0 -281 141t-117 352zM190 1157q168 183 371 316q336 -184 336 -293q0 -35 -36 -70t-91 -47q-110 128 -213 182 q-203 -166 -252 -166q-35 0 -58.5 15.5t-56.5 62.5zM367 514q0 -147 56 -244.5t134 -97.5q92 0 152 90q-2 25 -2 78q0 66 11 222.5t11 178.5q-90 55 -166 56q-100 0 -148 -84t-48 -199z" />
<glyph horiz-adv-x="1130" d="M92 473q0 238 141.5 379t372.5 141q250 0 463 -159q-25 -246 -25 -472q0 -236 39 -352q-106 -25 -155 -24q-150 0 -176 118q-103 -124 -263 -124q-164 0 -280.5 141t-116.5 352zM203 1257q0 80 57 135.5t133 55.5t130.5 -55.5t54.5 -135.5q0 -82 -57.5 -137t-131.5 -55 q-78 0 -132 54.5t-54 137.5zM399 514q0 -147 56.5 -244.5t134.5 -97.5q92 0 151 90q-2 25 -2 78q0 66 11.5 222.5t11.5 178.5q-90 55 -166 56q-100 0 -148.5 -84t-48.5 -199zM672 1257q0 80 57 135.5t133 55.5t130.5 -55.5t54.5 -135.5q0 -82 -57.5 -137t-131.5 -55 q-78 0 -132 54.5t-54 137.5z" />
<glyph horiz-adv-x="1130" d="M59 473q0 238 141.5 379t372.5 141q250 0 463 -159q-25 -246 -24 -472q0 -236 39 -352q-106 -25 -156 -24q-150 0 -176 118q-102 -124 -262 -124q-164 0 -281 141t-117 352zM223 1401q0 79 137 145q41 -53 115 -108.5t133.5 -91t105.5 -79.5t46 -83q0 -55 -80 -113 q-76 55 -202 119.5t-190.5 111t-64.5 99.5zM367 514q0 -147 56 -244.5t134 -97.5q92 0 152 90q-2 25 -2 78q0 66 11 222.5t11 178.5q-90 55 -166 56q-100 0 -148 -84t-48 -199z" />
<glyph horiz-adv-x="1130" d="M92 473q0 238 141.5 379t372.5 141q250 0 463 -159q-25 -246 -25 -472q0 -236 39 -352q-106 -25 -155 -24q-150 0 -176 118q-103 -124 -263 -124q-164 0 -280.5 141t-116.5 352zM371 1343q0 109 66.5 174.5t170.5 65.5q106 0 171 -65.5t65 -174.5q0 -106 -65 -171.5 t-171 -65.5q-104 0 -170.5 65.5t-66.5 171.5zM399 514q0 -147 56.5 -244.5t134.5 -97.5q92 0 151 90q-2 25 -2 78q0 66 11.5 222.5t11.5 178.5q-90 55 -166 56q-100 0 -148.5 -84t-48.5 -199zM496 1354q0 -63 30.5 -104.5t81.5 -41.5q53 0 82 34t29 91q0 63 -31 105.5 t-80 42.5q-51 0 -81.5 -35t-30.5 -92z" />
<glyph horiz-adv-x="1130" d="M59 473q0 238 141.5 379t372.5 141q250 0 463 -159q-25 -246 -24 -472q0 -236 39 -352q-106 -25 -156 -24q-150 0 -176 118q-102 -124 -262 -124q-164 0 -281 141t-117 352zM190 1204q0 70 83 137.5t180 67.5q49 0 140 -44t126 -44q47 0 137 82q27 -4 53.5 -27.5 t26.5 -56.5q0 -72 -82 -138.5t-180 -66.5q-49 0 -139.5 44t-124.5 44q-45 0 -140 -82q-80 29 -80 84zM367 514q0 -147 56 -244.5t134 -97.5q92 0 152 90q-2 25 -2 78q0 66 11 222.5t11 178.5q-90 55 -166 56q-100 0 -148 -84t-48 -199z" />
<glyph horiz-adv-x="2099" d="M59 465q0 135 46.5 239.5t120 166t159.5 92t174 30.5q82 0 168 -24q-109 133 -109 235q0 147 159 230.5t427 87.5h25q78 0 121 -27t43 -104q0 -12 -7.5 -180.5t-7.5 -252.5v-90q129 123 293 123q139 0 229.5 -80t90.5 -227q0 -4 -3 -147.5t-3 -217.5q0 -176 34 -299 q-88 -27 -178 -26q-164 0 -164 125q0 74 6.5 271.5t6.5 238.5q0 84 -34 126t-87 42q-86 0 -191 -101q4 -262 4 -379q0 -180 11 -315q-68 -6 -121 -6q-205 0 -205 98q0 8 5 142.5t5 279.5v500q0 152 -8 373q-279 -29 -278 -213q0 -80 61 -206t68 -149q4 -12 4 -20v-6v-2 q0 -125 -201 -150q-18 70 -65.5 111t-104.5 41q-76 0 -131 -77t-55 -226q-1 -318 208 -318q63 0 120 32t77 87q92 -33 121 -63.5t29 -73.5q0 -84 -98.5 -130t-256.5 -46q-229 0 -368.5 128t-139.5 357z" />
<glyph horiz-adv-x="1882" d="M59 465q0 135 46.5 239.5t120 166t159.5 92t174 30.5q104 0 205 -37q-18 47 -19 103q0 137 115 214t273 77q141 0 262 -68t121 -199q0 -18 -3.5 -60t-3.5 -52q213 0 338 16q14 -29 15 -88q0 -109 -121 -115q-78 -4 -236 -4q-6 -203 -6 -405q0 -49 2 -75t11.5 -62.5 t33 -53t60.5 -16.5q102 0 163 61q84 -59 84 -120q0 -57 -70.5 -93t-168.5 -36q-223 0 -316.5 98t-93.5 293v409q-106 -2 -182 -14q-16 45 -16 86q0 121 165 121h29l-4 123q-2 63 -29.5 89.5t-93.5 26.5q-82 0 -143.5 -68.5t-61.5 -156.5q0 -53 27 -107.5t29 -76.5v-10 q0 -125 -201 -150q-18 70 -65.5 111t-104.5 41q-76 0 -131 -77t-55 -226q-1 -318 208 -318q63 0 120 32t77 87q92 -33 121 -63.5t29 -73.5q0 -84 -98.5 -130t-256.5 -46q-229 0 -368.5 128t-139.5 357z" />
<glyph d="M-23 -131q0 113 150 160q35 -82 90 -82q104 0 115 178l30 526q-94 -4 -141 -10q-10 27 -10 61q0 37 24.5 63t67.5 26q45 0 70 2q18 227 134 349t351 122q98 0 162.5 -31t64.5 -86q0 -45 -40.5 -92t-112.5 -64q-8 31 -45 60.5t-78 29.5q-47 0 -83 -48t-42 -138l-6 -84 q125 8 272 29q12 -25 13 -80q0 -119 -154 -119q-96 0 -141 2l-23 -377q-14 -244 -113.5 -378t-343.5 -134q-106 0 -158.5 33t-52.5 82z" />
<glyph horiz-adv-x="1116" d="M59 473q0 240 142.5 380t353.5 140q279 0 481 -159q-33 -350 -32 -889q0 -121 -34 -208t-86.5 -135t-131 -76t-147 -36t-159.5 -8q-160 0 -267 37t-107 104q0 78 88 146q31 -41 118 -67t181 -26q174 0 215 70q8 14 14 32.5t8 50.5t3 51.5t1 70.5v76v73 q-102 -121 -247 -120q-168 0 -287 153q-106 139 -107 340zM369 514q0 -152 52 -244t128 -92q80 0 156 88q4 248 24 475q-94 53 -166 54q-90 0 -142 -73t-52 -208z" />
<glyph horiz-adv-x="595" d="M-23 -272q129 18 167 80.5t38 214.5q0 37 -1 227t-1 285q0 184 -16 417q72 27 164 27q166 0 166 -111q0 -10 -3.5 -61t-7.5 -131t-4 -160v-473q0 -233 -115.5 -366.5t-273.5 -133.5q-113 0 -113 185zM141 1257q0 80 57.5 135.5t133.5 55.5t130 -55.5t54 -135.5 q0 -82 -57 -137t-131 -55q-78 0 -132.5 54.5t-54.5 137.5z" />
<glyph horiz-adv-x="1755" d="M66 747.5q0 137.5 87 218.5t234 81q145 0 232.5 -81t87.5 -218.5t-87.5 -218t-232.5 -80.5q-147 0 -234 80.5t-87 218zM287 770q0 -70 25.5 -124t72.5 -54q43 0 70.5 41t27.5 102q0 66 -25.5 118t-70.5 52q-43 0 -71.5 -39t-28.5 -96zM414 10q-1 31 28 68l379 485 q258 328 410 547q43 -6 83 -36t40 -62q0 -27 -29 -68l-379 -489q-250 -317 -409 -547q-123 37 -123 102zM1049 278.5q0 137.5 87 218.5t234 81q145 0 232.5 -81t87.5 -218.5t-87.5 -218t-232.5 -80.5q-147 0 -234 80.5t-87 218zM1270 301q0 -70 25.5 -124t72.5 -54 q43 0 70.5 41t27.5 102q0 66 -25.5 118t-70.5 52q-43 0 -71.5 -39t-28.5 -96z" />
<glyph horiz-adv-x="2516" d="M66 747.5q0 137.5 87 218.5t234 81q145 0 232.5 -81t87.5 -218.5t-87.5 -218t-232.5 -80.5q-147 0 -234 80.5t-87 218zM287 770q0 -70 25.5 -124t72.5 -54q43 0 70.5 41t27.5 102q0 66 -25.5 118t-70.5 52q-43 0 -71.5 -39t-28.5 -96zM414 10q-1 31 28 68l379 485 q258 328 410 547q43 -6 83 -36t40 -62q0 -27 -29 -68l-379 -489q-250 -317 -409 -547q-123 37 -123 102zM1049 278.5q0 137.5 87 218.5t234 81q145 0 232.5 -81t87.5 -218.5t-87.5 -218t-232.5 -80.5q-147 0 -234 80.5t-87 218zM1270 301q0 -70 25.5 -124t72.5 -54 q43 0 70.5 41t27.5 102q0 66 -25.5 118t-70.5 52q-43 0 -71.5 -39t-28.5 -96zM1808 278.5q0 137.5 87 218.5t235 81q145 0 232 -81t87 -218.5t-87 -218t-232 -80.5q-147 0 -234.5 80.5t-87.5 218zM2030 301q0 -70 25.5 -124t72.5 -54q43 0 70.5 41t27.5 102q0 66 -25.5 118 t-70.5 52q-43 0 -71.5 -39t-28.5 -96z" />
<glyph d="M94 125q0 35 2 53q143 57 224 143.5t81 157.5q0 20 -8 62q-135 0 -233 -11q-10 27 -10 62q0 37 24.5 62.5t67.5 25.5h96q-80 147 -80 229q0 90 65.5 157t154.5 95.5t186 28.5q94 0 155.5 -30t61.5 -85q0 -84 -121 -151q-10 29 -43 49t-68 20q-96 0 -96 -59 q0 -29 15.5 -62.5t49 -91t48.5 -82.5q168 14 284 31q12 -25 13 -80q0 -119 -154 -119h-84q2 -6 2 -18q0 -78 -70 -154t-258 -170q18 -2 111 -2q317 0 506 66q49 -72 49 -135q0 -74 -68 -94q-92 -29 -354 -29q-358 0 -518 24q-31 33 -31 107z" />
<glyph d="M18 1042q49 78 97.5 110t115.5 32q90 0 136 -74q143 -250 233 -434q66 102 140.5 271t76.5 229q31 12 111 12q74 0 125 -29t51 -94q0 -37 -82 -177.5t-199 -287.5h47q74 0 197 12l6 -45q0 -82 -80 -88h-268v-92l145 2q74 0 197 12l6 -45q0 -82 -80 -88h-268 q0 -174 37 -272q-61 -16 -150 -16q-193 0 -192 100q2 90 4 188h-121q-78 0 -201 -12q-10 35 -10 51q0 78 80 78h121h131v92q-2 0 -2 2h-119q-78 0 -201 -12q-10 35 -10 51q0 78 80 78h182q-82 139 -125 203q-49 74 -72.5 105.5t-59.5 69.5t-79 68z" />
</font>
</defs>
</svg>
